<svg viewBox="0 0 400 157.3" xmlns="http://www.w3.org/2000/svg" xmlns:xlink="http://www.w3.org/1999/xlink" id="图层_1" overflow="hidden"><g><g><path d="M81.5 17.7C116.1 17.7 144.2 45.8 144.2 80.4 144.2 115 116.1 143.1 81.5 143.1 46.9 143.1 18.9 115 18.9 80.4 18.9 45.8 46.9 17.7 81.5 17.7M81.5 12.7C44.2 12.7 13.8 43.1 13.8 80.4 13.8 117.7 44.2 148.1 81.5 148.1 118.8 148.1 149.2 117.7 149.2 80.4 149.2 43.1 118.8 12.7 81.5 12.7L81.5 12.7Z" fill="#802358"/><path d="M81.8 44.1 92.6 55 107 55 107 69.4 118.2 80.6 108 90.8 108 105.5 92.3 105.5 81.7 116.1 71.3 105.7 56 105.7 56 91 45.2 80.2 56 69.4 56 54.7 71.1 54.7 81.8 44.1M81.8 37.7 78.6 40.9 69.3 50.2 56 50.2 51.5 50.2 51.5 54.7 51.5 67.6 42.1 77 38.9 80.2 42.1 83.4 51.6 92.9 51.6 105.8 51.6 110.3 56 110.3 69.5 110.3 78.6 119.4 81.8 122.6 85 119.4 94.3 110.1 108.2 110.1 112.7 110.1 112.7 105.6 112.7 92.6 121.6 83.7 124.8 80.5 121.6 77.3 111.7 67.4 111.7 55 111.7 50.5 107.2 50.5 94.5 50.5 84.9 40.9 81.8 37.7 81.8 37.7Z" fill="#802358"/><path d="M81.6 39.8C104 39.8 122.2 58 122.2 80.4 122.2 102.8 104.1 121 81.6 121 59.1 121 41 102.8 41 80.4 41 58 59.2 39.8 81.6 39.8M81.6 34.8C56.5 34.8 36 55.2 36 80.4 36 105.6 56.5 126 81.6 126 106.8 126 127.2 105.5 127.2 80.4 127.2 55.2 106.8 34.8 81.6 34.8L81.6 34.8Z" fill="#802358"/><g><g><g><path d="M23.8 96.7 23.6 93.8 30.6 86.5 22.3 87.8 21.9 85.5 34.3 83.6 34.4 86.2 27 93.9 35.9 92.6 36 94.9 23.8 96.7Z" fill="#802358"/><path d="M32.1 73.1 31.8 78.1 34.4 79.2 33.9 81.7 22.2 76.1 22.5 72.8 35.1 69.4 34.8 72.4 32.1 73.1ZM30 73.7 24.9 74.8 29.8 76.9 30 73.7Z" fill="#802358"/><path d="M24.5 63.2 25.6 60.6 35.6 57.9 27.8 54.9 28.6 52.6 40.2 57.1 39.2 59.5 28.9 62.5 36.7 65.9 35.7 68.2 24.5 63.2Z" fill="#802358"/><path d="M31.1 48.4 32.9 46 37 48.9 35.1 42.8 37.1 40.2 39.3 47.1 47.4 47.5 45.7 50.2 38.6 50 43.1 53.3 41.5 55.7 31.1 48.4Z" fill="#802358"/><path d="M52.9 40 49 42.7 49.8 45.4 47.8 47 43.8 34.6 46.5 32.4 57.5 39.3 55.1 41.3 52.9 40ZM50.9 38.8 46.6 35.8 48.4 40.7 50.9 38.8Z" fill="#802358"/><path d="M53.6 27.8 56.2 26.5 61.6 37.3 59.3 38.6 53.6 27.8Z" fill="#802358"/><path d="M80.3 20.6 83.3 20.4 83.5 28C83.5 28.7 83.4 29.4 83.2 30 83 30.6 82.7 31.2 82.2 31.7 81.8 32.2 81.3 32.5 80.8 32.8 80.1 33.1 79.3 33.3 78.3 33.3 77.7 33.3 77.1 33.3 76.4 33.3 75.7 33.2 75.2 33.1 74.7 32.9 74.2 32.7 73.8 32.3 73.4 31.9 73 31.5 72.7 31 72.6 30.5 72.4 29.7 72.2 29.1 72.2 28.5L72 21 75 20.8 75.2 28.6C75.2 29.3 75.4 30.3 75.8 30.7 76.2 31.1 77.3 31.2 77.9 31.2 78.5 31.2 79.6 31 80 30.6 80.3 30.2 80.5 29.2 80.5 28.5L80.3 20.6Z" fill="#802358"/><path d="M89.1 21.1 92 21.5 96.6 31.2 98.4 23.3 100.8 23.7 98.1 35.8 95.4 35.1 91 25.5 89.2 33.5 86.6 33.3 89.1 21.1Z" fill="#802358"/><path d="M105.7 25.7 108.3 26.8 103 38.2 100.5 36.9 105.7 25.7Z" fill="#802358"/><path d="M111.4 28.7 114.1 30.2 111.2 39.6 118.8 33.6 121 35.7 110.4 42.7 108.3 41.2 111.4 28.7Z" fill="#802358"/><path d="M124.5 38.5 128.9 44.1 127.2 45.5 124.4 41.9 122.5 43.6 125.5 47.2 123.9 48.6 120.9 45 118.4 47.3 121.3 51 119.6 52.3 114.9 46.8 124.5 38.5Z" fill="#802358"/><path d="M121.2 54.2 131.5 48.2 134 52.5C135 54 134.5 55.3 134.3 55.9 134.1 56.5 133.8 56.8 133.2 57.2 132.7 57.5 132.1 57.7 131.6 57.7 131.1 57.7 130.6 57.6 130.1 57.3 129.8 57.1 129.4 56.8 128.8 56.5L125.7 62 123.9 59.3 126.6 55.5C127 55 127.2 54 127.2 54L122.8 56.9 121.2 54.2ZM128.7 53 129.5 54.3C130.2 55.6 131.3 55.2 131.5 55 131.8 54.8 132.9 54.2 132 52.8L131.2 51.5 128.7 53Z" fill="#802358"/><path d="M128.9 63.3C128.9 63.3 128 65.4 128.3 66.3 128.5 66.8 129 67.4 129.4 67.5 130.1 67.8 130.4 67.6 130.7 67.5 131 67.4 131.2 67.2 131.4 66.9 131.5 66.6 131.5 66.1 131.6 65.4 131.8 63.7 132 63.1 132.3 62.3 132.7 61.5 133.3 60.9 134.2 60.6 134.8 60.4 135.5 60.4 136.1 60.5 136.8 60.7 137.2 60.8 137.8 61.4 138.4 62 138.9 62.7 139.2 63.9 139.5 65.3 139.1 66.8 138.4 67.6L136.7 66.3C136.9 65.4 137 64.3 136.9 63.8 136.7 63 135 61.9 134.2 64.5 133.7 66 133.9 70.2 130 70 129.2 70 127.6 69.9 126.4 67.5 125.6 66 125.7 64.1 127 62.2L128.9 63.3Z" fill="#802358"/><path d="M140.8 71.4 141 74.1 128.4 75.4 128.2 72.7 140.8 71.4Z" fill="#802358"/><path d="M141.6 77.3 141.4 86.6 138.9 86.6 139 83.3 128.6 83.2 128.7 80.3 139.1 80.4 139.2 77.2 141.6 77.3Z" fill="#802358"/><path d="M141 89.2 140.1 92.4 135.2 93.5 139.2 97 138.3 99.8 132.6 94.2 127.4 93.3 127.8 90.5 133.6 91.5 141 89.2Z" fill="#802358"/></g><g><circle cx="39.9" cy="114.4" r="2.1" fill="#802358"/><circle cx="123" cy="114.4" r="2.1" fill="#802358"/><path d="M57.2 133.9 61.1 126.4 58.9 125.7 59.5 124 64.2 125.7 59.3 135.1 57.2 133.9Z" fill="#802358"/><path d="M76.8 135.4C76 135.4 75.2 135.4 74.5 135.3 73.7 135.2 72.9 135.2 72.1 135 70.4 134.7 69.3 134.4 68.7 133.9 68.1 133.4 67.9 132.7 68.1 131.6L68.3 130.2C68.4 129.3 68.8 128.7 69.5 128.4 70.1 128.1 71.1 128 72.3 128.2L76.7 128.9C78 129.1 78.9 129.5 79.3 130 79.7 130.5 79.8 131.4 79.7 132.7L79.5 134.1C79.2 136.1 78.3 137.5 76.8 138.3 75.3 139.2 73.3 139.4 70.8 139.1 70.6 139.1 70.4 139 70.3 139 70.2 139 70.1 139 70 138.9L68.8 137 69.5 137.1C71.7 137.4 73.4 137.5 74.4 137.2 75.5 136.9 76.3 136.3 76.8 135.4ZM77.2 133.8C77.2 133.7 77.3 133.6 77.3 133.5 77.3 133.4 77.3 133.3 77.4 133.2 77.6 132.2 77.5 131.5 77.3 131.2 77.1 130.9 76.5 130.7 75.6 130.6L72.7 130.2C72 130.1 71.4 130.1 71.1 130.3 70.8 130.4 70.6 130.8 70.5 131.3L70.4 131.9C70.3 132.4 70.4 132.8 70.7 133 71 133.2 71.6 133.4 72.5 133.5 73.2 133.6 73.9 133.7 74.7 133.8 75.4 133.7 76.3 133.7 77.2 133.8Z" fill="#802358"/><path d="M87.2 139.1 86.3 130.9 84 131.2 83.9 129.8 88.4 128.6 89.5 138.8 87.2 139.1Z" fill="#802358"/><path d="M104.3 130.9C103.6 131.3 102.9 131.6 102.2 131.9 101.5 132.2 100.8 132.5 100 132.8 98.4 133.4 97.2 133.6 96.5 133.4 95.8 133.2 95.2 132.7 94.9 131.7L94.4 130.4C94.1 129.6 94.2 128.9 94.6 128.3 95 127.7 95.8 127.2 97 126.8L101.2 125.3C102.5 124.8 103.4 124.8 104 125 104.6 125.3 105.1 126 105.6 127.2L106.1 128.5C106.8 130.4 106.6 132 105.7 133.5 104.8 135 103.1 136.1 100.8 137 100.6 137.1 100.5 137.1 100.4 137.2 100.3 137.2 100.2 137.3 100.1 137.3L98.2 136.2 98.8 136C100.9 135.2 102.4 134.5 103.2 133.8 103.9 132.8 104.3 131.9 104.3 130.9ZM103.9 129.3C103.9 129.2 103.9 129.1 103.8 129 103.8 128.9 103.7 128.8 103.7 128.7 103.3 127.7 103 127.2 102.7 127 102.4 126.9 101.7 126.9 100.9 127.3L98.1 128.3C97.4 128.6 96.9 128.8 96.7 129.1 96.5 129.4 96.5 129.7 96.7 130.2L96.9 130.8C97.1 131.3 97.3 131.6 97.7 131.6 98.1 131.7 98.7 131.5 99.6 131.2 100.2 131 100.9 130.7 101.6 130.4 102.4 130 103.1 129.7 103.9 129.3Z" fill="#802358"/></g></g><g><path d="M69.9 56.9C70.4 57.3 70.8 58.1 70.8 58.8 70.8 60.7 70.1 62.5 70.7 64.4 70.8 64.8 72.5 65 72.8 64.9 73.5 64.9 74.5 64.7 74.7 64 75 63.2 74.3 62.3 74 61.6 73.8 60.8 73.8 59.6 74.4 58.9 75.9 57.5 77.5 60.3 77.9 61.5 78.3 63 78.5 65 77.6 66.3 76.8 67.5 75.1 67.8 73.7 67.8 72.8 67.8 70.6 67.5 70.6 68.9 70.6 69.9 72 70.9 72.9 70.9 73.9 70.9 75 70.5 76.1 70.5 77 70.5 78.4 70.7 78.9 71.6 79.5 72.5 79.9 75.3 80 77.2 80.4 82.6 79.5 90.1 79.6 93.8 79.7 96.7 80.7 100.2 77.1 99 76.5 98 77 97 77.1 95.8 77.3 92.7 77.1 88.8 77.1 85 77.1 83.3 77.4 81.7 77.3 80 77.3 78.9 77.5 75.6 76.1 75.2 74.8 74.9 73.7 76.4 73.1 77.3 73.5 77.9 74.8 77.6 75 78.5 74.7 79.3 74.9 80.6 74.4 81.2 73.4 81.7 71.9 80.8 70.8 81.4 70.4 82 70 82.7 70.6 83.3 72.2 83.5 74.3 83.1 74.6 84.6 75 87 72.1 85.9 70.8 87.1 69.9 91.1 71.4 97.8 70.8 101.3 70.7 102 70.4 103.5 69.5 103.6 67.8 103.9 67.2 100.6 67 99 66.6 94.3 67.6 90.5 66.8 86.7 65.1 86.3 63.2 86.8 63 85.4 62.7 83.3 65.8 84.3 66.8 82.7 66.9 80.4 64.3 82.1 63.2 81.2 62.8 80.8 63.3 78.4 63.3 77.8 63.3 76.7 62.1 74.8 61.3 76.5 60.4 78.3 60.9 80.9 61.1 82.8 61.2 83.9 61.4 85.1 61.4 86.2 61.5 89.5 62.6 99.5 60.5 99.9 58.2 100.3 58.2 96.7 58 94.3 57.7 89.6 58.3 82.1 58 77.9 57.9 76.5 57.1 74.2 57.2 73.3 57.9 69.7 62.9 71.4 65.3 70.4 65.9 70.2 67.3 69.2 66.9 68.4 66.5 67.8 64.8 68 64.1 67.9 62.4 67.7 60.5 67.6 59.7 65.8 59.4 62.7 60.1 58.5 62.3 59.1 64.5 59.7 62.5 62.1 63.2 63.9 63.5 64.7 64.7 65.7 66 65.2 68.9 64.2 65.9 59 67.6 57.2 68.5 56.3 69.3 56.4 69.9 56.9ZM67.8 73.4C66.9 73.4 65.3 72.6 64.5 73.3 63.9 73.8 64.3 74.2 64.7 74.7 65.3 75.4 65.9 76 66.4 76.8 66.9 77.6 67.5 78.6 68.5 78.5 70 78.2 70.1 76 71 75 71.1 74.9 71.4 74.8 71.5 74.7 71.7 74.6 71.9 74.5 72 74.3 72.2 74.1 72.6 73.8 72.4 73.5 72.2 73.1 71.6 73.1 71.3 73.1 70.8 73.1 70.2 73.2 69.7 73.2 69.1 73.3 68.4 73.4 67.8 73.4Z" fill="#802358" fill-rule="evenodd" clip-rule="evenodd"/><g><path d="M92.5 75.9C91.7 76.7 90 75.9 89 76.2 85.8 77.2 87.5 85.3 87.1 89 86.8 91.2 86.1 93.5 85.6 95.5 85.2 97 85 98.6 84.4 100 83.6 102 81.4 100.5 81.5 98.8 81.6 97.5 82.4 96.5 82.7 95.3 84.9 86.8 84.8 73.2 83.7 63.9 83.6 63.1 83.5 62.4 83.6 61.6 83.7 61.1 84.1 60 84.6 59.9 85.2 59.8 85.9 60.7 86.4 61 87.9 62 89.1 61.8 89.6 59.9 90 58.3 89 57.9 90.2 57.2 92.8 55.7 93.1 62.2 93.2 63.7 93.4 66.5 93.4 69.3 93.2 72 93.1 73.1 93.2 74.4 92.8 75.4 92.7 75.6 92.6 75.8 92.5 75.9ZM86.8 65C86.2 65.7 86.6 66.8 88 67.1 88.5 67.2 90.1 67 90.3 66.5 90.7 65.6 90.6 64.6 90.1 64.3 89.6 64 88.7 64.3 87.9 64.5 87.3 64.6 87 64.8 86.8 65ZM87.5 73.8C88 73.9 88.7 73.5 89.1 73.3 89.6 73 89.9 72.7 90.2 72.3 91 71 90.3 68.4 88 69.4 86.8 69.9 86.7 71.3 86.8 72.3 86.8 72.8 87 73.6 87.5 73.8 87.5 73.8 87.5 73.8 87.5 73.8Z" fill="#802358" fill-rule="evenodd" clip-rule="evenodd"/><path d="M99.6 61.6C99.9 61.6 100.6 61 100.9 60.8 101.3 60.6 101.8 60.4 102.3 60.4 104.1 60.4 104.2 62.2 104 63.5 103.7 65.6 103.5 67.6 103.5 69.6 103.4 73.7 103.6 77.9 103.8 82 103.9 84.3 104.1 86.6 104.2 89 104.3 90.4 104.3 91.7 104.4 93.1 104.5 94.4 104.3 95.8 104.6 97 104.9 98.1 106 100.6 104.1 101.1 101.6 101.7 101.2 97.3 101.1 95 100.8 91.9 102.3 78.3 100.1 76.7 99 76 98 76.3 96.8 76.4 95.3 76.5 94.4 76.1 94.4 74.5 94.4 73 94.2 71.5 94.1 70 93.9 66.6 93.7 63.1 94.3 59.8 94.4 59.1 94.7 57.5 95.7 57.4 97.9 57.4 97.3 61.5 99.6 61.6ZM97.7 66.2C97.9 66.5 98.3 66.8 98.7 66.9 99.6 67.2 101.2 67.4 101.6 66.2 101.7 65.9 101.2 65.1 101.1 64.8 100.8 64.4 100.4 64.1 99.9 63.8 99.2 63.5 97.9 63.1 97.6 64.1 97.2 64.9 97.3 65.6 97.7 66.2ZM100.7 73.4C100.8 73.3 100.9 73.1 100.9 73 101.1 72.1 101.1 71.2 100.6 70.4 100.3 70 99.3 69.7 98.8 69.7 98.5 69.7 98.1 69.8 97.9 69.9 97.7 70.1 97.8 70.3 97.7 70.5 97.4 71.3 97.6 73 98.4 73.6 99.1 74.1 100.2 74 100.7 73.4Z" fill="#802358" fill-rule="evenodd" clip-rule="evenodd"/><path d="M98.6 78C98.7 78.1 98.7 78.3 98.7 78.5 98.8 79 98.6 79.6 98.5 80 98.3 80.6 97.8 81.2 98.1 81.8 98.4 82.3 99.1 82.3 99.1 82.9 99.2 83.6 99.2 84.3 98.8 84.9 98.4 85.6 98 85.8 98 86.6 98 87.4 98 88.1 98 88.9 97.9 90.8 97.9 92.6 98 94.5 98.1 96 99.8 100.3 97.7 101.1 96.7 101.5 95.6 100.6 95.3 99.7 94.8 98.3 95.1 96.7 95.2 95.2 95.3 92.1 95.8 89 95.1 85.9 94.9 84.7 93.9 83.3 94.6 82 94.8 81.7 95.1 81.5 95.1 81.1 95.1 80.8 94.7 80.4 94.6 80.2 94.2 79.5 94 78.8 94.4 78.1 94.8 77.2 95.8 76.9 96.7 77 97.4 77.1 98.2 77.3 98.6 78Z" fill="#802358" fill-rule="evenodd" clip-rule="evenodd"/><path d="M92.4 85.9C92 90.2 92.4 95 91.1 98.8 90.7 100.1 89 103.7 87.7 103.4 85.4 102.9 87.8 99.6 88.3 98.4 89.5 95.3 90.2 90.1 89.6 86.2 88.6 85.5 88.5 84 88.8 83 89 82.5 89.8 82 89.9 81.5 90 80.9 89.1 80.5 88.8 80 88.2 79.1 88.4 78.2 89.2 77.6 90.4 76.7 93.5 76.9 93 79 92.8 79.9 91.9 80.5 92 81.4 92.1 82.2 93.4 83 93.4 83.8 93.3 84.9 92.6 85.5 92.4 85.9Z" fill="#802358" fill-rule="evenodd" clip-rule="evenodd"/></g></g></g><path d="" stroke="#000000" stroke-width="0.25" fill="none" fill-rule="evenodd" clip-rule="evenodd"/></g><g><g><g><path d="M178.1 75.5C178.9 75.7 177.6 78.4 177.1 79.6 177 79.8 176.6 80.7 176.5 80.9 176.3 81.3 176.1 81.8 176 82.2 175.7 83.1 175.7 84.1 175.8 85.1 175.9 87.1 176.6 88.8 176.6 90.9 175.9 91 175.4 91.7 174.6 91.7 172.8 90 169.5 86.1 173.7 84.7 174 84.6 174.2 82.6 174.2 82.3 174.4 81.4 174.6 80.5 175 79.6 175.4 78.6 175.8 77.5 176.6 76.7 176.9 76.3 177.6 75.6 178.1 75.5Z" fill="#802358" fill-rule="evenodd" clip-rule="evenodd"/><path d="M174.6 91.8 174.6 91.8 174.5 91.8C173.5 90.8 171.1 88.4 171.6 86.4 171.8 85.6 172.5 84.9 173.7 84.6 173.8 84.5 174 83.2 174.1 82.8 174.1 82.6 174.2 82.4 174.2 82.3 174.4 81.4 174.6 80.5 175 79.5 175.4 78.4 175.9 77.3 176.7 76.6 177.2 76.2 177.8 75.5 178.3 75.4L178.3 75.4 178.3 75.4C178.4 75.4 178.5 75.5 178.6 75.6 178.9 76.1 178.3 77.4 177.7 79 177.6 79.3 177.5 79.5 177.4 79.7 177.3 79.9 176.9 80.8 176.8 81 176.6 81.4 176.4 81.8 176.3 82.3 176.1 83.1 176 84 176.1 85.2 176.2 86.1 176.3 86.9 176.5 87.7 176.7 88.7 176.9 89.8 176.9 91L176.9 91.1 176.8 91.1C176.5 91.2 176.2 91.3 175.9 91.5 175.3 91.5 175 91.8 174.6 91.8ZM178.1 75.6C177.8 75.7 177.3 76.1 176.6 76.7 175.9 77.4 175.4 78.5 175 79.5 174.7 80.4 174.4 81.3 174.2 82.2 174.2 82.3 174.2 82.4 174.1 82.6 173.9 84.1 173.7 84.6 173.5 84.6 172.4 85 171.8 85.5 171.6 86.2 171.2 88 173.6 90.5 174.4 91.3 174.7 91.3 175 91.1 175.4 90.9 175.7 90.7 175.9 90.6 176.3 90.5 176.3 89.4 176.1 88.4 175.9 87.4 175.7 86.6 175.6 85.8 175.5 84.9 175.4 83.7 175.5 82.8 175.7 82 175.8 81.5 176 81.1 176.2 80.7 176.3 80.5 176.7 79.6 176.8 79.5 176.9 79.3 177 79.1 177.1 78.8 177.7 77.8 178.4 76.2 178.1 75.6 178.2 75.7 178.2 75.6 178.1 75.6Z" fill="#802358"/></g><g><path d="M195.2 76.3C196.1 76.5 197.5 75.8 198.1 76.5 198.5 77 198.3 77.9 198.2 78.5 198.1 79.1 197.3 79.5 197.2 80 197.1 80.7 197.9 80.5 198.3 80.7 198.7 80.9 198.6 80.6 198.8 81.1 198.9 81.5 198.5 82.4 198.5 82.8 198.4 83.4 198.2 84 198.4 84.7 198.9 86.8 199.5 86.6 200.8 87.2 202.3 87.9 206 89.4 205.4 87 204.9 85 206.1 82.6 206 80.7 205.8 76.5 206.4 72.3 206.4 68 206.4 66.8 206.5 65.7 206.7 64.6 206.8 64 207.1 63 206.4 62.5 205.3 61.9 203.3 63.2 202.4 63.6 197.1 66.4 191.9 69.4 186.5 72.1 185.4 72.6 184.4 73.1 183.2 73.5 182.2 73.8 181.2 73.9 180.2 74.3 179.2 74.7 178.4 74.8 177.3 74.7 176.9 72.7 180.4 71.1 181.9 70.3 183 69.7 184.2 69.2 185.3 68.7 186 68.4 188.1 67.9 188.6 67.3 190 65.3 190.9 62.9 191.1 59.8 187.7 60.7 179.2 64.6 178.6 64.9 177.6 65.5 176.7 66 175.2 65.4 173.5 64.7 175.6 62.2 176.6 61.4 176.6 61.8 176.4 62.7 176.9 63 177.2 63.1 178 62.8 178.3 62.7 180.2 62.1 182.1 61.2 184 60.3 186.2 59.3 188.3 58.2 190.4 57.1 191.1 56.8 191.9 56.8 192.3 56.1 192.7 55.4 192.6 54.2 192.7 53.4 193 51.6 193.2 49.8 193.8 48.1 194 47.5 194.4 46.9 194.5 46.3 194.7 45.6 194.5 44.7 194.5 44 194.5 42.4 194.5 40.8 194.5 39.2 194.5 37.4 194.5 35.5 194.5 33.7 195.9 33.4 201.4 39 201.6 39.3 203.7 42.4 200.2 51.6 199.3 54.1 202.5 54.3 205.2 52.1 208 51.1 208.7 50.9 206.2 49.3 206 49.2 205.6 49 205.1 48.8 204.7 48.5 204.4 48.3 204.1 47.8 204.1 47.5 205.4 47.4 206.7 47.8 208 47.8 208.8 47.8 209.5 47.8 210.3 47.8 210.8 47.8 211.5 47.6 212.1 47.7 212.7 47.9 212.7 48.3 213.2 48.6 213.6 48.9 214.2 48.8 214.4 49.1 215.3 50.3 214 51.3 213 51.6 211.3 52.2 209.7 52.9 208 53.5 206.3 54.1 204.7 54.8 203 55.4 202.1 55.7 201.2 56.1 200.3 56.4 199.8 56.6 198 56.9 197.6 57.3 196.7 58.5 196 59.7 195.4 61 194.8 62.2 193.8 63.6 193.6 64.9 195.2 65 197.1 63.9 198.5 63.4 200.9 62.5 203.3 61.6 205.7 60.8 206.5 60.5 207.4 60.1 208.2 60 208.9 59.9 208.7 59.9 209.2 60.4 209.7 60.9 210.3 61 210.5 61.6 210.8 62.5 210.4 63.8 210.3 64.7 210.2 67.9 209.8 71 209.5 74.2 209.1 78.9 208.7 83.7 208.3 88.4 208.2 89.1 208.1 89.7 208.1 90.4 208.1 91.1 208.4 92.7 207.7 93.2 206.2 94.3 202.3 90.8 201.2 89.9 200.4 89.3 199.7 88.6 198.8 88.1 198.5 87.9 198.2 87.4 197.8 87.5 197.2 87.7 197.4 88 197.1 88.3 196.4 88.9 193.8 88.7 193 88.4 191.9 88.1 191.9 87.1 192 86.2 192 86 190 86 189.7 85.6 189.6 85.5 189.6 85.1 189.5 84.9 189.2 84.1 189.9 83.8 190.5 83.4 191.3 82.9 192.1 82.6 193 82.5 193.3 82.5 192.7 81.4 192.6 81.4 192.3 81.1 191.8 81 191.4 80.8 190.6 80.5 189.7 80.3 190.1 79.3 190.5 78.4 192.1 77.5 193 77.2 193.1 77.2 193.6 75.7 193.7 75.4 194 74.8 194.4 74.3 194.8 73.8 195.5 72.8 196.5 71.4 196.3 70.2 196.3 70 196 69.5 193.8 71.2 193.1 71.8 192.5 72.8 191.9 73.5 191.2 74.3 190.5 75 189.9 75.9 189.3 76.7 189 77.4 187.8 77.3 186.8 77.2 185.9 76.8 185 76.4 183.8 75.7 183.2 75.5 183.7 74.1 183.7 74.2 187.6 74 188 73.8 189.3 73.4 190.3 72.5 191.4 71.7 192.4 71 193.3 70.3 194.2 69.4 195 68.6 195.5 68.4 196.6 68 197.5 67.7 198.1 67.1 199 66.8 200.3 66.4 202.3 67.6 201.5 69 201.2 69.5 200.4 69.9 200 70.3 199.6 70.8 199.2 71.4 198.7 71.8 197.7 73.1 196.1 74.6 195.2 76.3Z" fill="#802358" fill-rule="evenodd" clip-rule="evenodd"/><path d="M207.2 93.4C205.6 93.4 203 91.3 201.8 90.3 201.6 90.2 201.5 90 201.4 90 201.2 89.8 201 89.7 200.8 89.5 200.2 89 199.7 88.6 199 88.2 198.9 88.1 198.8 88.1 198.7 88 198.5 87.8 198.3 87.6 198.1 87.7 197.8 87.8 197.8 87.9 197.7 88.1 197.6 88.2 197.6 88.4 197.5 88.5 197.2 88.8 196.5 88.9 195.6 88.9 194.7 88.9 193.7 88.8 193.3 88.6 192 88.2 192.1 86.8 192.2 86.3 192.1 86.2 191.7 86.2 191.4 86.2 190.6 86.1 190.1 86 190 85.8 190 85.7 189.9 85.6 189.9 85.4 189.9 85.3 189.9 85.1 189.8 85.1 189.5 84.3 190 84 190.6 83.7 190.7 83.6 190.8 83.6 190.9 83.5 191.8 82.9 192.6 82.7 193.5 82.6 193.5 82.4 193.2 81.8 193.1 81.7 192.9 81.5 192.5 81.4 192.2 81.2 192.1 81.2 192 81.1 191.9 81.1 191.8 81.1 191.7 81 191.6 81 191.1 80.8 190.6 80.6 190.5 80.2 190.4 80 190.4 79.7 190.6 79.4 191 78.5 192.6 77.6 193.5 77.2 193.6 77.1 193.8 76.6 193.9 76.2 194 75.8 194.1 75.6 194.2 75.5 194.5 75.1 194.8 74.7 195 74.3 195.1 74.2 195.2 74.1 195.3 73.9L195.3 73.9C196 72.9 197 71.6 196.8 70.4 196.8 70.4 196.8 70.3 196.6 70.3 196.4 70.3 195.8 70.4 194.5 71.5 194 71.9 193.6 72.5 193.2 73 193 73.3 192.8 73.5 192.6 73.7 192.3 74 192 74.4 191.7 74.7 191.3 75.1 190.9 75.6 190.5 76.1 190.4 76.2 190.3 76.4 190.2 76.5 189.7 77.1 189.4 77.7 188.3 77.6 187.4 77.5 186.5 77.2 185.5 76.7L185.3 76.6C184.2 76 183.6 75.7 184.1 74.2L184.2 74.2 184.2 74.2 184.2 74.1C184.2 74.1 184.2 74.1 184.4 74.1 185.3 74.1 188.1 73.9 188.4 73.8 189.5 73.4 190.4 72.8 191.2 72.1 191.4 72 191.6 71.8 191.7 71.7 192.7 70.9 193.6 70.2 194.4 69.4 195.3 68.6 195.7 68.4 196.8 68 197.2 67.9 197.6 67.6 197.9 67.4 198.3 67.2 198.7 66.9 199.2 66.8 199.4 66.7 199.6 66.7 199.8 66.7 200.6 66.7 201.5 67.1 201.9 67.8 202.1 68.1 202.2 68.6 201.9 69.2 201.7 69.5 201.4 69.8 201.1 70 200.9 70.2 200.6 70.4 200.5 70.5 200.4 70.7 200.2 70.9 200.1 71 199.8 71.3 199.6 71.7 199.2 72 197.8 73.2 196.2 74.6 195.3 76.3 195.6 76.3 196 76.3 196.4 76.2 196.7 76.2 197 76.1 197.2 76.1 197.6 76.1 197.9 76.2 198.1 76.4 198.5 76.9 198.4 77.7 198.3 78.3 198.3 78.4 198.3 78.5 198.3 78.6 198.2 79 198 79.3 197.7 79.5 197.5 79.7 197.3 79.9 197.3 80.1 197.3 80.2 197.3 80.3 197.3 80.3 197.4 80.4 197.7 80.5 197.9 80.5 198.1 80.5 198.2 80.5 198.3 80.6 198.4 80.7 198.5 80.7 198.6 80.7 198.8 80.7 198.8 80.8 198.9 81.1 199 81.4 198.8 82 198.7 82.4 198.6 82.6 198.6 82.8 198.6 82.9L198.6 83.1C198.5 83.6 198.4 84.2 198.5 84.7 198.9 86.4 199.3 86.6 200.2 86.9 200.4 87 200.6 87 200.8 87.1 203.1 88.1 204.7 88.5 205.1 87.9 205.2 87.7 205.3 87.4 205.2 87.1 204.9 85.9 205.2 84.6 205.4 83.3 205.6 82.4 205.8 81.5 205.7 80.7 205.6 78.3 205.7 75.8 205.9 73.4 206 71.6 206.1 69.8 206.1 68 206.1 66.8 206.2 65.7 206.4 64.5 206.4 64.4 206.4 64.4 206.4 64.3 206.5 63.7 206.7 62.9 206.1 62.6 205.9 62.5 205.7 62.4 205.5 62.4 204.6 62.4 203.4 63 202.7 63.5 202.5 63.6 202.4 63.7 202.3 63.7 200 64.9 197.8 66.1 195.6 67.3 192.6 68.9 189.5 70.6 186.4 72.1 185.3 72.6 184.2 73.1 183.1 73.5 182.6 73.7 182.1 73.8 181.6 73.9 181.1 74 180.6 74.1 180.1 74.3 179.1 74.7 178.3 74.8 177.2 74.7L177.1 74.7 177.1 74.6C176.7 72.7 179.6 71.2 181.3 70.2 181.5 70.1 181.6 70 181.7 70 182.8 69.4 184 68.9 185.1 68.4 185.3 68.3 185.6 68.2 186 68.1 186.9 67.8 188 67.4 188.3 67 189.7 65 190.5 62.6 190.8 59.7 187.3 60.7 179.1 64.4 178.5 64.8 177.8 65.2 177.1 65.6 176.3 65.6 175.9 65.6 175.4 65.5 175 65.3 174.6 65.1 174.3 64.8 174.3 64.5 174.2 63.4 175.6 61.8 176.4 61.2L176.6 61.1 176.6 61.3C176.6 61.4 176.6 61.6 176.6 61.7 176.6 62.1 176.6 62.6 176.8 62.8 176.8 62.8 176.8 62.8 176.9 62.8 177.2 62.8 177.7 62.6 177.9 62.6 178 62.6 178 62.6 178.1 62.6 179.7 62.1 181.3 61.4 182.8 60.7 183.1 60.6 183.4 60.4 183.8 60.3 185.3 59.6 186.9 58.8 188.3 58.1 188.9 57.8 189.6 57.5 190.2 57.1 190.4 57 190.7 56.9 190.9 56.8 191.4 56.7 191.8 56.5 192 56.1 192.2 55.6 192.3 54.9 192.3 54.3 192.3 54 192.3 53.7 192.4 53.5 192.6 51.7 192.9 49.9 193.5 48.2 193.6 47.9 193.7 47.7 193.8 47.4 194 47.1 194.1 46.7 194.2 46.4 194.3 45.9 194.3 45.4 194.3 44.8 194.3 44.6 194.3 44.3 194.3 44.1 194.3 43.1 194.3 42.2 194.3 41.2L194.3 33.6 194.4 33.6C194.5 33.6 194.5 33.6 194.6 33.6 196.3 33.6 201.5 39 201.7 39.2 203.1 41.3 202.3 46.2 199.5 53.9 201.6 53.9 203.4 53 205.2 52.1 206.1 51.7 207 51.2 207.9 50.9 208 50.6 206.2 49.4 205.9 49.3 205.8 49.2 205.7 49.2 205.6 49.2 205.3 49.1 204.9 48.9 204.6 48.7 204.3 48.5 204 48 204 47.6L204 47.5 204.1 47.5C204.8 47.5 205.5 47.6 206.2 47.7 206.8 47.8 207.4 47.9 208 47.9L208.2 47.9C208.7 47.9 209.2 47.9 209.6 47.9L210.3 47.9C210.5 47.9 210.7 47.9 210.9 47.8 211.3 47.7 211.8 47.7 212.1 47.8 212.5 47.9 212.7 48.1 212.8 48.3 212.9 48.4 213 48.6 213.2 48.7 213.4 48.8 213.6 48.8 213.8 48.9 214.1 49 214.3 49 214.5 49.2 214.8 49.6 214.9 50 214.8 50.5 214.6 51.2 213.8 51.7 213.1 52 212.1 52.3 211 52.7 210 53.1 209.4 53.3 208.7 53.6 208.1 53.8 207.2 54.1 206.4 54.5 205.5 54.8 204.7 55.1 203.9 55.4 203.1 55.7L202.4 56C201.8 56.2 201.1 56.5 200.4 56.7 200.2 56.8 200 56.8 199.7 56.9 199 57.1 198 57.3 197.8 57.5 196.9 58.7 196.2 60 195.6 61.2 195.4 61.6 195.2 61.9 195 62.3 194.5 63.2 194 64.1 193.8 64.9 194.9 64.9 196.2 64.3 197.4 63.9 197.8 63.7 198.2 63.6 198.5 63.5 199.4 63.2 200.4 62.8 201.3 62.5 202.8 62 204.3 61.4 205.8 60.9 206.1 60.8 206.3 60.7 206.6 60.6 207.2 60.4 207.8 60.1 208.4 60L208.5 60C208.7 60 208.8 60 208.9 60 209.1 60 209.2 60.1 209.3 60.2 209.4 60.3 209.4 60.3 209.5 60.4 209.7 60.6 209.8 60.7 210 60.8 210.3 61 210.7 61.2 210.8 61.7 211 62.3 210.9 63.1 210.8 63.9 210.7 64.3 210.7 64.6 210.7 64.9 210.6 67.2 210.4 69.6 210.2 71.8 210.1 72.6 210 73.5 210 74.3 209.6 79.4 209.2 83.9 208.8 88.5 208.8 88.8 208.7 89.1 208.7 89.3 208.6 89.7 208.6 90.1 208.6 90.5 208.6 90.7 208.6 90.9 208.6 91.1 208.6 91.9 208.7 93 208.2 93.4 207.7 93.3 207.5 93.4 207.2 93.4ZM198.1 87.3C198.4 87.3 198.6 87.5 198.8 87.7 198.9 87.8 199 87.9 199.1 87.9 199.8 88.3 200.3 88.8 200.9 89.2 201.1 89.4 201.3 89.5 201.5 89.7 201.6 89.8 201.8 89.9 201.9 90 203.1 91 205.7 93.1 207.2 93.1 207.5 93.1 207.7 93 207.8 92.9 208.2 92.6 208.2 91.6 208.1 90.9 208.1 90.7 208.1 90.4 208.1 90.3 208.1 89.9 208.2 89.5 208.2 89.1 208.2 88.8 208.3 88.5 208.3 88.3 208.7 83.7 209.1 79.2 209.5 74.1 209.6 73.3 209.7 72.4 209.7 71.6 209.9 69.3 210.1 67 210.2 64.7 210.2 64.4 210.3 64 210.3 63.7 210.4 63 210.6 62.2 210.3 61.7 210.2 61.3 209.9 61.2 209.6 61 209.4 60.9 209.2 60.7 209 60.6 208.9 60.5 208.8 60.4 208.8 60.3 208.7 60.2 208.7 60.2 208.6 60.2 208.5 60.2 208.4 60.2 208.2 60.2L208.1 60.2C207.5 60.3 206.9 60.5 206.4 60.7 206.1 60.8 205.9 60.9 205.6 61 204.1 61.5 202.6 62.1 201.1 62.6 200.2 62.9 199.2 63.3 198.3 63.6 198 63.7 197.6 63.9 197.2 64 196 64.5 194.5 65.1 193.3 65.1L193.2 65.1 193.2 65C193.4 64.1 193.9 63.1 194.5 62.1 194.7 61.7 194.9 61.4 195.1 61 195.7 59.8 196.4 58.5 197.3 57.3 197.5 57 198.3 56.8 199.3 56.6 199.6 56.5 199.9 56.5 200 56.4 200.7 56.2 201.3 55.9 202 55.7L202.7 55.4C203.5 55.1 204.3 54.8 205.1 54.5 205.9 54.2 206.8 53.8 207.7 53.5 208.3 53.3 209 53 209.6 52.8 210.6 52.4 211.6 52 212.7 51.7 213.3 51.5 214.1 51 214.2 50.4 214.3 50.1 214.2 49.7 214 49.4 213.9 49.3 213.7 49.2 213.5 49.2 213.3 49.2 213 49.1 212.8 49 212.6 48.9 212.5 48.7 212.4 48.6 212.2 48.4 212.1 48.2 211.8 48.2 211.5 48.1 211.1 48.2 210.7 48.2 210.5 48.2 210.3 48.3 210.1 48.3L209.4 48.3C208.9 48.3 208.4 48.3 208 48.3L207.8 48.3C207.2 48.3 206.6 48.2 206 48.1 205.4 48 204.8 47.9 204.2 47.9 204.2 47.9 204.1 47.9 204.1 47.9 204.2 48.2 204.4 48.5 204.6 48.7 204.9 48.9 205.2 49.1 205.6 49.2 205.7 49.2 205.8 49.3 205.9 49.3 205.9 49.3 208.1 50.6 208 51.2 208 51.3 208 51.4 207.8 51.4 206.9 51.7 206 52.2 205.1 52.6 203.2 53.5 201.3 54.5 199.1 54.4L198.9 54.4 199 54.1C201.8 46.5 202.6 41.6 201.3 39.6 201.1 39.3 196 34.1 194.4 34.1 194.4 34.1 194.4 34.1 194.4 34.1L194.4 41.5C194.4 42.5 194.4 43.4 194.4 44.4 194.4 44.6 194.4 44.9 194.4 45.1 194.4 45.7 194.5 46.2 194.3 46.7 194.2 47.1 194 47.4 193.9 47.8 193.8 48.1 193.7 48.3 193.6 48.6 193 50.3 192.8 52.1 192.5 53.9 192.5 54.2 192.4 54.4 192.4 54.7 192.4 55.4 192.3 56.1 192.1 56.6 191.8 57.1 191.3 57.3 190.8 57.4 190.6 57.5 190.4 57.5 190.2 57.6 189.6 57.9 188.9 58.2 188.3 58.6 186.8 59.4 185.3 60.1 183.8 60.8 183.5 60.9 183.2 61.1 182.8 61.2 181.3 61.9 179.7 62.6 178.1 63.1L178 63.1C177.7 63.2 177.2 63.4 176.9 63.4 176.8 63.4 176.7 63.4 176.7 63.4 176.3 63.2 176.3 62.6 176.3 62.1 176.3 62.1 176.3 62 176.3 62 175.5 62.7 174.4 64.1 174.5 64.9 174.5 65.2 174.7 65.4 175.1 65.5 175.5 65.7 176 65.8 176.3 65.8 177 65.8 177.6 65.5 178.4 65.1 179 64.8 187.6 60.9 190.9 60L191.1 60 191.1 60.2C190.9 63.1 190 65.7 188.6 67.8 188.3 68.3 187.1 68.7 186.1 69 185.7 69.1 185.4 69.2 185.2 69.3 184.1 69.8 182.9 70.3 181.8 70.9 181.7 71 181.5 71 181.4 71.1 179.9 71.9 177 73.4 177.3 75.1 178.3 75.1 179.1 75 180 74.7 180.5 74.5 181.1 74.4 181.6 74.3 182.1 74.2 182.6 74.1 183 73.9 184.1 73.5 185.2 73 186.3 72.5 189.4 71 192.5 69.3 195.5 67.7 197.7 66.5 200 65.3 202.2 64.1 202.3 64 202.5 64 202.6 63.9 203.4 63.5 204.6 62.8 205.6 62.8 205.9 62.8 206.1 62.9 206.4 63 207.1 63.4 207 64.3 206.8 65 206.8 65.1 206.8 65.1 206.8 65.2 206.6 66.3 206.5 67.4 206.5 68.6 206.5 70.4 206.4 72.2 206.3 74 206.1 76.4 206 78.8 206.1 81.2 206.1 82 205.9 82.9 205.7 83.9 205.4 85.1 205.2 86.4 205.5 87.5 205.6 88 205.6 88.3 205.4 88.6 204.9 89.3 203.3 89 200.8 87.8 200.6 87.7 200.4 87.6 200.2 87.6 199.2 87.2 198.8 87 198.3 85.2 198.1 84.6 198.3 84 198.4 83.5L198.4 83.3C198.4 83.2 198.5 83 198.5 82.8 198.6 82.4 198.8 81.9 198.7 81.6 198.7 81.5 198.6 81.4 198.6 81.4 198.5 81.4 198.4 81.4 198.3 81.3 198.2 81.3 198.1 81.2 197.9 81.2 197.6 81.2 197.3 81.1 197.1 80.9 197 80.8 197 80.6 197 80.5 197 80.2 197.3 80 197.5 79.8 197.7 79.6 198 79.3 198 79 198 78.9 198 78.8 198 78.7 198.1 78.1 198.2 77.5 197.8 77 197.7 76.8 197.4 76.8 197.1 76.8 196.9 76.8 196.6 76.8 196.3 76.9 195.8 77 195.3 77 195 76.9L194.9 76.9 195 76.8C195.9 75 197.6 73.6 199.1 72.3 199.4 72 199.7 71.7 199.9 71.3 200 71.1 200.2 70.9 200.3 70.7 200.5 70.5 200.7 70.3 201 70.1 201.3 69.9 201.6 69.6 201.8 69.4 202 69 202 68.6 201.8 68.2 201.5 67.6 200.7 67.2 200 67.2 199.8 67.2 199.6 67.2 199.5 67.3 199.1 67.4 198.7 67.7 198.3 67.9 197.9 68.1 197.6 68.4 197.1 68.5 196 68.9 195.6 69.1 194.8 69.8 194 70.6 193.1 71.3 192 72.1 191.8 72.2 191.6 72.4 191.5 72.5 190.6 73.2 189.7 73.8 188.6 74.2 188.2 74.3 185.4 74.5 184.5 74.5 184.4 74.5 184.4 74.5 184.3 74.5 183.9 75.6 184.3 75.9 185.4 76.5L185.6 76.6C186.6 77.1 187.5 77.4 188.3 77.5 189.2 77.6 189.5 77.1 190 76.5 190.1 76.4 190.2 76.2 190.3 76.1 190.7 75.6 191.1 75.2 191.5 74.7 191.8 74.4 192.1 74 192.4 73.7 192.6 73.5 192.8 73.2 192.9 73 193.3 72.4 193.8 71.8 194.3 71.4 195.3 70.6 196.1 70.2 196.5 70.2 196.8 70.2 196.9 70.4 196.9 70.5 197.1 71.8 196.1 73.2 195.4 74.2L195.4 74.2C195.3 74.3 195.2 74.4 195.1 74.6 194.8 75 194.5 75.4 194.3 75.8 194.3 75.9 194.1 76.2 194 76.5 193.6 77.5 193.6 77.6 193.5 77.6 192.6 77.9 191.1 78.8 190.7 79.7 190.6 79.9 190.6 80.1 190.6 80.3 190.7 80.6 191.2 80.8 191.6 80.9 191.7 80.9 191.8 81 191.9 81 192 81 192.1 81.1 192.2 81.1 192.5 81.2 192.9 81.4 193.2 81.6 193.3 81.7 193.8 82.5 193.7 82.8 193.7 82.9 193.6 82.9 193.5 82.9 192.7 82.9 191.9 83.2 191 83.8 190.9 83.9 190.8 83.9 190.7 84 190.1 84.3 189.8 84.5 190.1 85.1 190.1 85.2 190.2 85.3 190.2 85.5 190.2 85.6 190.2 85.8 190.3 85.8 190.4 85.9 191.1 86.1 191.6 86.1 192.3 86.2 192.6 86.2 192.6 86.5 192.4 87.7 192.7 88.3 193.5 88.6 193.9 88.7 194.9 88.8 195.8 88.8 196.7 88.8 197.3 88.7 197.6 88.4 197.7 88.3 197.7 88.2 197.8 88.1 197.9 87.9 198 87.7 198.4 87.5 198 87.3 198 87.3 198.1 87.3Z" fill="#802358"/></g></g><g><g><path d="M235.7 71.7C237.2 71.4 236.9 73.7 237 74.5 237.1 75.6 237.3 76.8 237.5 77.9 237.8 79.5 238.5 81.2 238.5 82.8 238.6 84.4 233.2 85.8 233.2 85.4 232.9 83.1 233.5 80.4 233.9 78.1 234.1 76.9 234.4 75.7 234.7 74.6 234.8 74.2 235.3 71.7 235.7 71.7Z" fill="#802358" fill-rule="evenodd" clip-rule="evenodd"/><path d="M233.4 85.6C233.3 85.6 233 85.6 233 85.4 232.8 83.4 233.2 81.1 233.5 79.1 233.6 78.8 233.6 78.4 233.7 78.1 233.9 76.8 234.2 75.7 234.5 74.6 234.5 74.6 234.5 74.5 234.6 74.3 235.1 72.1 235.4 71.7 235.6 71.6 235.7 71.6 235.8 71.6 235.9 71.6 237 71.6 237 73 237 73.9 237 74.1 237 74.4 237 74.5 237.1 75.4 237.3 76.3 237.4 77.2L237.5 77.9C237.6 78.6 237.8 79.2 238 79.9 238.3 80.9 238.5 81.8 238.6 82.8 238.6 83.1 238.5 83.4 238.2 83.7 237.2 84.7 234.3 85.6 233.4 85.6ZM233.3 85.3C233.3 85.3 233.4 85.3 233.4 85.3 234.2 85.3 237 84.5 238 83.5 238.2 83.3 238.3 83 238.3 82.8 238.3 81.9 238 80.9 237.7 80 237.5 79.3 237.3 78.6 237.2 78L237.1 77.3C237 76.4 236.8 75.5 236.7 74.6 236.7 74.4 236.7 74.2 236.7 73.9 236.7 72.7 236.6 71.7 235.6 71.9 235.5 72 235.3 72.4 234.8 74.4 234.8 74.5 234.7 74.6 234.7 74.7 234.4 75.8 234.1 76.9 233.9 78.2 233.8 78.5 233.8 78.9 233.7 79.2 233.5 81.1 233.1 83.3 233.3 85.3Z" fill="#802358"/></g><g><path d="M264.5 50.4C264.5 50.5 264.5 50.5 264.5 50.4 265.6 50.8 265.1 53.8 265.2 54.7 265.8 62 263.4 69.2 264.1 77.8 264.9 79.1 264.8 80.8 264.8 82.2 264.8 83.1 264.7 83.9 264.7 84.8 264.7 85.9 265.1 86.7 264.2 87.6 263.8 88 262.6 89.4 262 89.3 261.4 89.2 253.7 86.7 250.7 85.3 249.3 84.6 247.8 84.1 246.4 83.5 245.6 83.2 244.6 82.4 244.8 81.5 244.2 81.6 242.5 81.4 242.6 80.5 242.7 80 243.6 79.6 244.1 79.4 244.7 79.1 245.1 78.9 245.4 78.3 246 76.7 243.7 77.2 242.7 77.1 242.7 75.9 243.4 75.4 244.4 74.9 245.4 74.4 246.3 73.7 247.4 73.3 248.8 72.7 250 71.8 251.3 71 252.8 70.1 253.3 71.1 254.8 71.1 255.3 72.9 253.8 73 252.8 74.1 253.2 74.6 254.2 74.2 254.8 74.3 255.1 77.7 256.2 82.3 252.6 84.4 252.9 84.2 254.5 84.8 254.8 84.9 255.6 85.1 256.5 85.2 257.3 85.4 258.8 85.6 260.5 85.9 262.1 85.7 262.7 83.1 261.1 80.3 261.2 77.6 259.5 71.6 262.1 61.6 261.2 54.3 260.2 54.2 260.8 57.5 260.8 57.9 260.7 58.8 260.1 59.1 259.4 59.6 258.5 60.4 258.1 61.2 257.6 62.3 257.3 62.9 257.1 63.4 256.7 63.9 256.5 64.3 255.8 65 255.8 65.4 255.7 66.6 256.9 68.2 254.8 68 254 67.9 253.1 67.7 252.4 67.3 252.2 67.2 251.1 65.8 251 65.8 249 66 248.9 68.2 248.9 69.6 248.9 70.6 247.3 72.6 246 72.2 245.9 71.4 246.4 70.6 246.6 69.8 246.7 69.3 246.7 68.5 246.6 68 245.6 68.4 244.5 70.4 243.6 70.4 243 70.4 242 69.4 241.8 68.9 240.9 66.8 246.7 66.2 247.8 65.7 247.9 65.7 248.2 62.9 248.3 62.5 248.6 61.5 249 60.3 248.9 59.3 249 58.9 246.4 60.4 246.1 60.6 245.2 61.1 244.3 61.7 243.4 62.2 241.7 63.1 239.1 64.1 237.1 63.6 236.7 63.5 236.4 63.2 236.2 63 237.1 61.5 239.7 60.3 241.3 59.5 243.3 58.5 245.4 57.7 247.5 56.9 247.8 56.8 247.6 56.4 247.8 56.3 248.1 56.1 248.8 56.2 249.1 56.2 249.8 56.2 250.8 55.9 251.5 56.4 252.3 56.9 251.9 58.1 251.6 58.8 251 60.7 249.8 62.3 250 64.4 255.6 65.6 255.8 61.7 258 59.7 258.4 56.3 259.3 53.3 260.3 50.5 261 50.5 261.6 50.4 262.3 50.4 263 50.6 263.9 50.3 264.5 50.4ZM247.8 75.7C247.8 76.2 247.8 76.7 247.8 77.2 248.6 76.4 250.4 76.1 250.6 74.8 249.2 74.6 249.6 75.1 247.8 75.7ZM248.5 79.4C248.3 79.6 248.3 80.1 248.2 80.3 248 80.9 247.7 81.7 247.7 82.3 247.8 83.3 249.1 83.2 250 83.6 250.3 82.3 251 80.1 249.7 79.1 249.6 79.5 248.8 79.2 248.5 79.4 248.5 79.4 248.5 79.4 248.5 79.4Z" fill="#802358" fill-rule="evenodd" clip-rule="evenodd"/><path d="M262.1 89.5C262.1 89.5 262 89.5 262 89.5 261.5 89.4 253.7 86.9 250.6 85.5 249.7 85.1 248.8 84.7 247.9 84.4 247.4 84.2 246.8 84 246.3 83.8 245.4 83.4 244.6 82.7 244.6 81.8 244.6 81.8 244.5 81.8 244.5 81.8 244.3 81.8 243.1 81.8 242.6 81.3 242.5 81.1 242.4 80.9 242.4 80.7 242.4 80.2 243.1 79.9 243.7 79.7 243.8 79.7 243.9 79.6 244 79.6L244.1 79.6C244.6 79.3 245 79.1 245.2 78.6 245.3 78.3 245.3 78.1 245.2 77.9 245 77.6 244.4 77.6 243.9 77.6 243.7 77.6 243.4 77.6 243.2 77.6 243 77.6 242.8 77.6 242.6 77.6L242.4 77.6 242.4 77.5C242.4 76.2 243.2 75.7 244.2 75.2 244.6 75 244.9 74.8 245.2 74.6 245.8 74.2 246.4 73.9 247.2 73.6 248.1 73.2 248.9 72.7 249.8 72.2 250.2 71.9 250.6 71.7 251.1 71.4 251.5 71.1 251.9 71 252.3 71 252.7 71 253 71.1 253.3 71.2 253.7 71.3 254.1 71.5 254.6 71.5L254.7 71.5 254.7 71.6C255.1 73 254.4 73.5 253.6 74 253.3 74.2 253 74.4 252.8 74.6 252.9 74.7 253.1 74.7 253.4 74.7 253.6 74.7 253.7 74.7 253.9 74.7 254.2 74.7 254.5 74.7 254.7 74.7L254.8 74.7 254.8 74.8C254.8 75.2 254.9 75.5 254.9 75.9 255.3 79 255.7 82.8 252.9 84.7 253.3 84.8 253.8 84.9 254.2 85 254.4 85.1 254.6 85.1 254.7 85.1 255.7 85.3 256.5 85.4 257.2 85.6L257.3 85.6C258.5 85.8 259.7 86 260.9 86 261.2 86 261.6 86 261.9 86 262.2 84.6 261.8 83.1 261.5 81.6 261.2 80.4 260.9 79.2 261 78 260.1 74.7 260.4 70.2 260.8 65.5 261.1 61.8 261.4 58.1 261.1 54.8 261.1 54.8 261 54.8 261 54.9 260.6 55.3 260.8 56.9 260.9 57.7 260.9 58 261 58.2 260.9 58.3 260.8 59 260.4 59.4 259.9 59.8 259.8 59.9 259.6 60 259.5 60.1 258.6 60.8 258.2 61.7 257.7 62.7 257.4 63.3 257.1 63.9 256.8 64.4 256.7 64.5 256.6 64.7 256.5 64.9 256.3 65.2 256 65.6 255.9 65.9 255.9 66.2 256 66.6 256 67 256.1 67.5 256.2 68 256 68.3 255.8 68.6 255.4 68.7 254.8 68.6 253.9 68.5 253 68.3 252.3 67.8 252.2 67.7 252 67.5 251.6 67.1 251.4 66.8 251 66.5 250.9 66.4 249 66.6 249 68.6 249 70.1L249 70.1C249 71.1 247.7 72.9 246.3 72.9 246.2 72.9 246 72.9 245.9 72.8L245.8 72.8 245.8 72.7C245.8 72.1 246 71.6 246.2 71.1 246.3 70.8 246.4 70.6 246.5 70.3 246.6 69.9 246.6 69.2 246.5 68.7 246.1 68.9 245.7 69.3 245.4 69.7 244.8 70.3 244.2 71 243.6 71 243 71 241.9 69.9 241.7 69.5 241.5 69.2 241.6 68.8 241.7 68.5 242.2 67.4 244.6 66.9 246.3 66.5 246.9 66.4 247.5 66.2 247.8 66.1 247.9 65.9 248 65.1 248.1 64.4 248.2 63.7 248.3 63.1 248.3 63 248.4 62.8 248.4 62.6 248.5 62.4 248.7 61.6 249 60.7 248.9 59.9 248.5 60 246.8 60.9 246.3 61.2 246 61.4 245.6 61.6 245.3 61.8 244.8 62.1 244.2 62.5 243.6 62.8 242.5 63.4 240.5 64.4 238.5 64.4 238.1 64.4 237.6 64.4 237.3 64.3 237 64.2 236.8 64 236.5 63.9 236.4 63.8 236.3 63.8 236.3 63.7L236.2 63.6 236.3 63.5C237.2 62.1 239.4 60.9 241.1 60.1L241.5 59.9C243.4 58.9 245.5 58.1 247.7 57.3 247.8 57.3 247.8 57.2 247.8 57.1 247.8 57 247.8 56.8 248 56.7 248.1 56.6 248.3 56.6 248.6 56.6 248.8 56.6 248.9 56.6 249.1 56.6 249.2 56.6 249.3 56.6 249.4 56.6 249.6 56.6 249.8 56.6 250 56.6 250.2 56.6 250.5 56.6 250.7 56.6 251.2 56.6 251.5 56.7 251.8 56.9 252.7 57.5 252.3 58.6 252 59.3L252 59.4C251.8 60 251.6 60.5 251.4 61 250.9 62.2 250.4 63.4 250.5 64.8 251.1 64.9 251.7 65 252.3 65 252.3 65 252.3 65 252.3 65 254.8 65 255.8 63.6 256.8 62.1 257.3 61.4 257.7 60.7 258.3 60.2 258.7 57.2 259.4 54.3 260.6 51L260.6 50.9 260.7 50.9C260.9 50.9 261.1 50.9 261.2 50.9 261.7 50.9 262.1 50.8 262.7 50.8 262.9 50.8 263.2 50.8 263.4 50.7 263.9 50.6 264.4 50.6 264.8 50.7L264.9 50.7C265.8 51 265.7 52.8 265.7 54.1 265.7 54.5 265.7 54.8 265.7 55.1 266 58.6 265.6 62.1 265.2 65.8 264.7 69.7 264.3 73.8 264.6 78.2 265.4 79.5 265.4 81.1 265.3 82.5L265.3 82.6C265.3 83.1 265.3 83.6 265.3 84.1 265.3 84.5 265.3 84.8 265.3 85.2 265.3 85.5 265.3 85.8 265.3 86 265.4 86.7 265.4 87.3 264.7 88 264.7 88.1 264.6 88.1 264.5 88.2 263.6 88.5 262.7 89.5 262.1 89.5ZM244.9 81.4 244.9 81.6C244.7 82.5 245.8 83.2 246.4 83.5 246.9 83.7 247.5 83.9 248 84.1 248.9 84.4 249.8 84.8 250.7 85.2 253.7 86.6 261.5 89.1 262 89.2 262 89.2 262 89.2 262 89.2L262 89.2C262.5 89.2 263.4 88.2 263.8 87.7 263.9 87.6 263.9 87.5 264 87.5 264.6 86.9 264.6 86.4 264.5 85.7 264.5 85.4 264.5 85.2 264.5 84.9 264.5 84.5 264.5 84.2 264.5 83.8 264.5 83.3 264.5 82.8 264.5 82.3L264.5 82.2C264.5 80.8 264.5 79.2 263.8 78L263.8 77.9C263.4 73.4 263.9 69.3 264.4 65.4 264.8 61.7 265.2 58.3 264.9 54.7 264.9 54.5 264.9 54.1 264.9 53.7 265 52.5 265 50.8 264.3 50.5L264.3 50.5C264 50.4 263.5 50.5 263 50.5 262.7 50.5 262.5 50.6 262.2 50.6 261.7 50.6 261.2 50.6 260.8 50.7 260.6 50.7 260.5 50.7 260.3 50.7 259.1 54 258.4 56.9 258 59.8L258 59.8 258 59.8C257.4 60.3 256.9 61 256.5 61.7 255.5 63.2 254.5 64.7 251.8 64.7 251.8 64.7 251.8 64.7 251.8 64.7 251.2 64.7 250.6 64.6 249.9 64.5L249.8 64.5 249.8 64.4C249.7 62.9 250.2 61.7 250.7 60.4 250.9 59.9 251.1 59.4 251.3 58.8L251.3 58.7C251.5 58 251.9 57 251.2 56.6 251 56.4 250.7 56.4 250.2 56.4 250 56.4 249.7 56.4 249.5 56.4 249.3 56.4 249.1 56.4 248.9 56.4 248.8 56.4 248.7 56.4 248.6 56.4 248.4 56.4 248.3 56.4 248.1 56.4 247.8 56.4 247.7 56.4 247.7 56.5 247.7 56.5 247.7 56.6 247.7 56.7 247.7 56.8 247.7 57 247.4 57.1 245.1 58 243.1 58.8 241.2 59.7L241 60C239.4 60.8 237.3 61.9 236.4 63.2 236.4 63.2 236.5 63.3 236.5 63.3 236.7 63.5 236.9 63.6 237.2 63.7 237.6 63.8 238 63.8 238.4 63.8 240.4 63.8 242.6 62.7 243.4 62.3 244 62 244.5 61.6 245 61.3 245.3 61.1 245.7 60.9 246 60.7 246 60.7 248.3 59.3 248.8 59.3 248.9 59.3 248.9 59.3 249 59.4 249 59.4 249 59.5 249 59.5 249.1 60.3 248.9 61.3 248.6 62.1 248.5 62.3 248.5 62.5 248.4 62.7 248.4 62.8 248.3 63.5 248.2 64.1 247.9 65.9 247.9 65.9 247.8 65.9 247.5 66 246.9 66.2 246.2 66.3 244.6 66.6 242.3 67.2 241.8 68.1 241.7 68.3 241.7 68.6 241.8 68.9 242 69.3 243 70.3 243.5 70.3 244 70.3 244.6 69.7 245.2 69.1 245.7 68.6 246.1 68.1 246.5 67.9L246.6 67.8 246.6 67.9C246.7 68.4 246.8 69.2 246.6 69.7 246.5 70 246.4 70.3 246.3 70.5 246.1 71 245.9 71.4 245.9 71.9 246 71.9 246.1 71.9 246.2 71.9 247.4 71.9 248.6 70.3 248.6 69.4L248.6 69.4C248.6 67.9 248.7 65.7 250.8 65.5 250.8 65.5 250.8 65.5 250.8 65.5 250.9 65.5 251 65.6 251.7 66.3 251.9 66.6 252.2 66.9 252.3 67 252.9 67.4 253.7 67.7 254.6 67.7 255.2 67.7 255.5 67.7 255.6 67.5 255.8 67.3 255.7 66.8 255.6 66.4 255.5 66 255.4 65.6 255.5 65.3 255.5 65 255.8 64.6 256.1 64.2 256.2 64 256.3 63.9 256.4 63.8 256.7 63.3 257 62.8 257.3 62.2 257.8 61.2 258.3 60.3 259.1 59.5 259.2 59.4 259.4 59.3 259.5 59.2 260 58.8 260.4 58.5 260.4 57.9 260.4 57.8 260.4 57.6 260.4 57.3 260.3 56 260.2 54.8 260.6 54.3 260.7 54.2 260.8 54.1 261 54.2L261.1 54.2 261.1 54.3C261.5 57.6 261.2 61.4 260.9 65.1 260.5 69.8 260.2 74.3 261.1 77.6L261.1 77.6 261.1 77.6C261 78.8 261.3 80 261.6 81.2 262 82.7 262.3 84.3 262 85.8L262 85.9 261.9 85.9C261.6 85.9 261.2 86 260.8 86 259.6 86 258.3 85.8 257.1 85.6L257 85.6C256.3 85.5 255.4 85.3 254.5 85.1 254.4 85.1 254.2 85 254 84.9 253.5 84.8 252.8 84.5 252.5 84.5 252.4 84.5 252.4 84.5 252.4 84.5 252.4 84.5 252.4 84.5 252.4 84.5L252.3 84.3C252.3 84.3 252.3 84.3 252.3 84.3L252.3 84.3C255.4 82.5 255 78.6 254.6 75.5 254.6 75.1 254.5 74.8 254.5 74.4 254.3 74.4 254.1 74.4 253.9 74.4 253.7 74.4 253.5 74.4 253.4 74.4 253.1 74.4 252.8 74.4 252.6 74.1L252.5 74 252.6 73.9C252.9 73.6 253.2 73.4 253.6 73.1 254.4 72.6 254.9 72.2 254.6 71.1 254.1 71.1 253.7 70.9 253.3 70.8 253 70.7 252.7 70.6 252.3 70.6 252 70.6 251.6 70.7 251.2 70.9 250.8 71.2 250.3 71.4 249.9 71.7 249.1 72.2 248.2 72.8 247.3 73.2 246.6 73.5 246 73.8 245.4 74.2 245.1 74.4 244.7 74.6 244.4 74.8 243.5 75.3 242.8 75.7 242.7 76.8 242.9 76.8 243 76.8 243.2 76.8 243.4 76.8 243.7 76.8 243.9 76.8 244.4 76.8 245.1 76.9 245.4 77.2 245.6 77.4 245.6 77.7 245.4 78.1 245.2 78.7 244.7 79 244.1 79.3L244 79.3C243.9 79.3 243.8 79.4 243.7 79.4 243.3 79.6 242.6 79.9 242.6 80.2 242.6 80.3 242.6 80.5 242.7 80.6 243 80.9 243.8 81.1 244.4 81.1 244.5 81.1 244.6 81.1 244.7 81.1L244.9 81.4ZM250.1 83.7 250 83.6C249.7 83.5 249.4 83.4 249.1 83.3 248.4 83.1 247.7 83 247.6 82.2 247.6 81.7 247.7 81.2 247.9 80.7 248 80.5 248 80.3 248.1 80.2 248.1 80.1 248.1 80.1 248.1 80 248.2 79.7 248.2 79.4 248.4 79.2 248.4 79.2 248.4 79.2 248.5 79.1 248.6 79 248.8 79 248.9 79 249 79 249 79 249.1 79 249.2 79 249.2 79 249.3 79 249.5 79 249.6 79 249.7 78.9L249.8 78.8 249.9 78.9C251.1 79.8 250.6 81.6 250.3 82.9 250.3 83.1 250.2 83.3 250.2 83.5L250.1 83.7ZM248.9 79.4C248.8 79.4 248.7 79.4 248.6 79.4 248.6 79.4 248.6 79.4 248.6 79.4 248.5 79.5 248.4 79.8 248.4 80 248.4 80.1 248.4 80.2 248.3 80.2 248.3 80.4 248.2 80.5 248.1 80.7 247.9 81.2 247.8 81.7 247.8 82.1 247.9 82.7 248.4 82.8 249.1 83 249.4 83.1 249.6 83.1 249.9 83.2 249.9 83.1 250 82.9 250 82.8 250.3 81.6 250.7 79.9 249.7 79.1 249.6 79.2 249.4 79.3 249.2 79.3 249.1 79.3 249.1 79.3 249 79.3 249 79.4 248.9 79.4 248.9 79.4ZM247.7 77.5 247.7 75.6 247.8 75.6C248.5 75.4 248.9 75.1 249.1 74.9 249.5 74.6 249.8 74.5 250.6 74.6L250.7 74.6 250.7 74.7C250.5 75.6 249.7 76 248.9 76.5 248.5 76.7 248.1 76.9 247.8 77.2L247.7 77.5ZM247.9 75.8 247.9 77C248.2 76.8 248.5 76.6 248.8 76.4 249.5 76 250.2 75.6 250.4 74.9 250.2 74.9 250.1 74.9 250 74.9 249.7 74.9 249.5 75 249.2 75.2 249 75.3 248.6 75.6 247.9 75.8Z" fill="#802358"/></g></g><g><g><path d="M290.5 74.9C289.2 74.4 288.5 73.7 288.4 71.5 289.2 71.5 289.2 72.3 289.8 72.6 291.8 72 294.2 71.9 295.3 70.5 295.4 70.4 297.1 70.3 297.4 70.2 298 70 298.5 69.7 299 69.4 299.7 69 300.5 68.8 301.1 68.4 302 67.7 301.8 66.3 302 65.3 302.5 62.7 303.6 60.2 304 57.6 304.2 56 303 52.5 305.7 52.3 306.2 52.3 306.5 52.7 306.7 53.1 307.1 53.7 307.1 53.5 307.7 53.9 308.6 54.5 309.3 55 309.3 56.1 309.3 57.1 309.2 58 309 59 308.9 59.4 308.9 59.9 308.6 60.2 308.3 60.7 308.1 60.8 307.9 61.4 307.7 62 307.6 62.6 307.4 63.2 307 64.3 306.4 65.4 306.3 66.6 307.6 67.2 309 66.1 310.2 66 309.9 64.5 309.9 64.7 310.2 63.2 310.3 63 312.1 63.3 312.4 63.3 312.7 63.3 313.1 63.3 313.4 63.2 313.6 63.1 313.6 62.7 313.9 62.6 314.2 62.5 314.9 62.6 315.2 62.6 316.3 62.6 317.3 62.6 318.4 62.6 319.6 66.2 315.2 66.2 311.4 67.4 307.8 68.6 304.6 69.8 304.6 69.9 303.3 76.8 299.5 84.1 291.7 86.2 289.5 86.8 286.6 87.3 284.3 87.1 283.9 87.1 284.9 86.5 284.9 86.6 285.3 86.2 285.2 86.1 286 85.8 287.4 85.4 288.8 84.8 290.1 84.2 292.6 82.9 294.8 81.2 297.1 79.7 297.3 79.6 297.4 78.2 297.6 77.9 297.8 77.3 298.1 76.8 298.4 76.3 298.9 75.3 300.4 73.2 300.4 72.1 299.3 72.9 298.4 73.5 297.1 74 296.2 74.3 295 75.2 294 75.3 293.5 74.8 291.1 75.1 290.5 74.9Z" fill="#802358" fill-rule="evenodd" clip-rule="evenodd"/><path d="M285.5 86.8C285.1 86.8 284.7 86.8 284.3 86.7 284.1 86.7 284.1 86.5 284.1 86.5 284.1 86.3 284.6 86 284.8 85.9 284.9 85.8 285 85.7 285 85.7 285.2 85.4 285.3 85.3 286 85.2 287.4 84.8 288.8 84.3 290.1 83.6 291.9 82.6 293.7 81.4 295.3 80.3 295.9 79.9 296.5 79.5 297 79.1 297.1 79 297.2 78.4 297.3 78 297.4 77.7 297.4 77.4 297.4 77.3 297.6 76.7 297.9 76.2 298.2 75.6 298.3 75.4 298.5 75.1 298.7 74.7 299.3 73.8 300 72.5 300.1 71.7 299.1 72.5 298.2 73 296.9 73.5 296.6 73.6 296.2 73.8 295.8 74 295.1 74.4 294.4 74.7 293.8 74.8L293.6 74.8C293.1 74.9 292 75 291.1 75 290.7 75 290.5 75 290.3 74.9 289 74.4 288.2 73.7 288.1 71.4L288.1 71.3 288.2 71.3C288.7 71.3 289 71.6 289.2 71.9 289.3 72.1 289.4 72.2 289.6 72.3 290.1 72.2 290.6 72 291.1 71.9 292.6 71.6 294.2 71.2 295 70.2 295.1 70.1 295.2 70.1 296.2 70 296.6 70 297.1 69.9 297.2 69.9 297.8 69.7 298.3 69.4 298.8 69.1 299.1 68.9 299.4 68.8 299.8 68.6 300.2 68.4 300.6 68.3 300.9 68 301.5 67.5 301.6 66.7 301.7 65.8 301.7 65.5 301.7 65.2 301.8 65 302 63.8 302.4 62.6 302.7 61.4 303.1 60.1 303.5 58.7 303.7 57.3 303.8 56.9 303.7 56.3 303.7 55.7 303.6 54.1 303.4 52 305.5 51.8 306.1 51.7 306.4 52.3 306.7 52.6 306.9 53 307 53 307.2 53.1 307.3 53.1 307.4 53.2 307.6 53.3 308.6 53.9 309.2 54.5 309.2 55.6 309.2 56.6 309.1 57.6 308.9 58.5L308.9 58.6C308.8 59 308.8 59.4 308.5 59.7 308.4 59.8 308.3 60 308.2 60.1 308 60.3 307.9 60.5 307.8 60.9 307.8 61.1 307.7 61.2 307.7 61.4 307.6 61.8 307.5 62.2 307.3 62.7 307.2 62.9 307.1 63.1 307 63.4 306.6 64.3 306.3 65.1 306.2 66 306.4 66.1 306.6 66.1 306.9 66.1 307.4 66.1 308 65.9 308.6 65.7 309 65.5 309.4 65.4 309.8 65.3L309.8 65.2C309.5 64 309.5 64 309.8 62.9L309.9 62.7C309.9 62.5 310.1 62.5 310.4 62.5 310.8 62.5 311.4 62.6 311.8 62.6 312 62.6 312.1 62.6 312.2 62.6L312.3 62.6C312.5 62.6 312.8 62.6 313 62.5 313.1 62.5 313.1 62.4 313.2 62.3 313.3 62.2 313.3 62 313.5 61.9 313.6 61.8 313.8 61.8 314 61.8 314.2 61.8 314.4 61.8 314.6 61.8 314.7 61.8 314.9 61.8 314.9 61.8 315.6 61.8 316.2 61.8 316.9 61.8 317.3 61.8 317.7 61.8 318.1 61.8L318.2 61.8 318.2 61.9C318.5 62.8 318.5 63.5 318.2 64 317.6 65.2 315.8 65.6 313.7 66.1 312.9 66.3 312 66.5 311.1 66.8 307.8 67.9 304.8 69 304.4 69.2 303.6 73.3 300.8 83 291.4 85.5 290.4 86.3 287.9 86.8 285.5 86.8ZM284.4 86.5C284.7 86.5 285.1 86.5 285.5 86.5 287.9 86.5 290.4 85.9 291.7 85.6 301 83.1 303.8 73.5 304.5 69.4 304.5 69.3 304.5 69.3 306.6 68.5 307.5 68.2 309.3 67.5 311.3 66.8 312.2 66.5 313 66.3 313.9 66.1 315.9 65.6 317.6 65.2 318.2 64.1 318.5 63.6 318.5 63 318.2 62.2 317.8 62.2 317.5 62.2 317.1 62.2 316.4 62.2 315.8 62.2 315.1 62.2 315 62.2 314.9 62.2 314.7 62.2 314.5 62.2 314.3 62.2 314.2 62.2 314 62.2 313.9 62.2 313.8 62.3 313.7 62.3 313.7 62.4 313.6 62.5 313.5 62.6 313.5 62.8 313.3 62.8 313 63 312.7 62.9 312.4 62.9L312.3 62.9C312.3 62.9 312.1 62.9 311.9 62.9 311.5 62.9 310.9 62.8 310.5 62.8 310.3 62.8 310.2 62.8 310.2 62.8L310.2 63C310 64.1 310 64.1 310.2 65.2L310.3 65.6 310.2 65.6C309.8 65.6 309.3 65.8 308.9 66 308.3 66.2 307.7 66.4 307.1 66.4 306.8 66.4 306.5 66.3 306.2 66.2L306.1 66.2 306.1 66.1C306.2 65.1 306.6 64.2 306.9 63.3 307 63.1 307.1 62.9 307.2 62.6 307.4 62.2 307.5 61.8 307.6 61.4 307.6 61.2 307.7 61.1 307.7 60.9 307.8 60.5 308 60.3 308.1 60 308.2 59.9 308.3 59.8 308.3 59.6 308.5 59.3 308.6 58.9 308.6 58.6L308.6 58.5C308.8 57.6 308.9 56.7 308.9 55.7 308.9 54.7 308.4 54.2 307.4 53.7 307.2 53.6 307.1 53.5 307 53.5 306.7 53.4 306.6 53.3 306.3 52.9 306.1 52.5 305.8 52.1 305.4 52.2 303.6 52.4 303.7 54.2 303.8 55.8 303.8 56.4 303.9 57 303.8 57.4 303.6 58.8 303.2 60.2 302.8 61.5 302.5 62.7 302.1 63.9 301.9 65.1 301.9 65.3 301.8 65.6 301.8 65.9 301.7 66.7 301.6 67.7 300.9 68.2 300.6 68.5 300.1 68.6 299.7 68.8 299.4 68.9 299 69.1 298.8 69.2 298.3 69.5 297.8 69.8 297.2 70 297.1 70 296.7 70.1 296.1 70.1 295.7 70.1 295.2 70.2 295.1 70.2 294.2 71.3 292.6 71.6 291.1 72 290.6 72.1 290 72.2 289.6 72.4L289.6 72.4 289.6 72.4C289.3 72.3 289.2 72.1 289 71.9 288.8 71.7 288.7 71.4 288.4 71.4 288.6 73.5 289.2 74.1 290.4 74.6 290.5 74.6 290.7 74.7 291.1 74.7 291.9 74.7 293 74.6 293.5 74.5L293.7 74.5C294.3 74.4 295 74.1 295.6 73.7 296 73.5 296.4 73.3 296.8 73.1 298.1 72.6 299 72 300.1 71.2L300.3 71.1 300.3 71.3C300.3 72.2 299.5 73.6 298.8 74.7 298.6 75 298.4 75.3 298.3 75.6 298 76.1 297.7 76.7 297.5 77.2 297.5 77.3 297.4 77.6 297.4 77.8 297.3 78.6 297.2 79 297 79.1 296.4 79.5 295.8 79.9 295.3 80.3 293.6 81.5 291.9 82.7 290.1 83.6 288.8 84.3 287.4 84.9 285.9 85.2 285.3 85.4 285.3 85.4 285.1 85.7 285.1 85.8 285 85.8 284.9 85.9L284.9 85.9 284.9 85.9C284.9 85.9 284.9 85.9 284.9 85.9L284.8 85.8 284.8 85.9C284.8 86.3 284.5 86.4 284.4 86.5Z" fill="#802358"/></g><g><path d="M307.4 73.6C307.2 73.6 308.3 74.3 308.4 74.3 308.6 74.4 308.9 74.4 309 74.6 309.2 74.8 309.1 75.1 309.3 75.3 309.5 75.5 310.1 75.5 310.4 75.6 311.1 75.9 311.8 76.2 312.4 76.6 312.8 76.8 315.5 79.2 315.8 79.1 317.3 78.2 319.1 79.3 320.7 78.9 321.3 78.7 322.1 78.4 322 79.3 322 79.4 321 80.8 320.9 80.8 318.1 81.3 317 83.2 314.9 82.9 313.2 82.7 309.2 78 309.2 77.8 307.8 76.5 306.3 75.3 305.3 73.7 305.9 73.6 306.5 73.5 307.4 73.6Z" fill="#802358" fill-rule="evenodd" clip-rule="evenodd"/><path d="M315.3 83.2C315.2 83.2 315.1 83.2 314.9 83.2 313.2 83 309.5 78.7 309.1 78 308.8 77.7 308.5 77.4 308.2 77.2 307.1 76.2 306 75.2 305.2 74L305.1 73.9 305.3 73.9C306 73.7 306.6 73.6 307.4 73.7L307.4 73.8 307.5 73.8C307.6 73.9 308.4 74.4 308.5 74.5 308.6 74.5 308.6 74.5 308.7 74.6 308.9 74.6 309 74.7 309.2 74.8 309.3 74.9 309.3 75.1 309.4 75.2 309.4 75.3 309.4 75.4 309.5 75.5 309.6 75.6 309.9 75.7 310.2 75.7 310.4 75.7 310.5 75.8 310.6 75.8 311.2 76 311.9 76.4 312.6 76.9 312.7 77 313 77.2 313.3 77.5 314 78.1 315.6 79.4 315.9 79.4 316.3 79.1 316.8 79 317.4 79 317.8 79 318.3 79.1 318.7 79.1 319.4 79.2 320.2 79.3 320.8 79.1L320.9 79.1C321.1 79 321.4 79 321.6 79 321.8 79 321.9 79.1 322 79.2 322.1 79.3 322.1 79.5 322.1 79.8 322.1 80 321 81.4 320.9 81.5 319.7 81.7 318.7 82.3 317.9 82.7 317 82.7 316.3 83.2 315.3 83.2ZM305.5 73.9C306.3 75.1 307.3 76 308.4 77 308.7 77.3 309 77.6 309.3 77.9L309.3 77.9 309.3 78C309.4 78.4 313.3 82.8 314.9 83 316 83.1 316.8 82.7 317.8 82.1 318.6 81.6 319.5 81.1 320.8 80.9 321 80.8 321.8 79.6 321.9 79.4 321.9 79.2 321.9 79.1 321.8 79 321.7 78.9 321.2 79 320.9 79.1L320.8 79.1C320.5 79.2 320.2 79.2 319.9 79.2 319.5 79.2 319 79.1 318.6 79.1 318.2 79 317.7 79 317.3 79 316.7 79 316.3 79.1 315.9 79.3 315.9 79.3 315.8 79.3 315.8 79.3 315.5 79.3 314.6 78.6 313 77.4 312.7 77.1 312.4 76.9 312.3 76.8 311.6 76.3 311 76 310.4 75.8 310.3 75.8 310.2 75.7 310 75.7 309.7 75.6 309.4 75.6 309.2 75.4 309.1 75.3 309 75.1 309 75 309 74.9 309 74.8 308.9 74.7 308.8 74.6 308.7 74.6 308.5 74.5 308.4 74.5 308.3 74.5 308.3 74.4 308.3 74.4 307.5 74 307.2 73.7 306.6 73.7 306.1 73.7 305.5 73.9Z" fill="#802358"/></g></g><g><g><path d="M373.5 75.9C374.2 76.2 374.7 76.7 374.7 77.6 374.6 79.3 373.2 79.8 371.6 79.9 370.6 79.9 367.6 79.3 366.9 80.3 366.4 81 367.4 82.3 367.6 83 367.8 84.1 367.9 85.1 367.9 86.2 368 88.2 368 90.2 368 92.2 368 93.8 366.7 95.2 365 95.6 363.8 95.9 362.6 95.4 361.4 95.3 360 95.2 358.8 95.5 357.6 94.8 356.8 94.3 356 94.3 355.1 93.9 354 93.4 352.3 92.9 352.3 91.6 353.2 92.3 354.6 92.2 355.8 92.2 357.1 92.3 358.3 92.3 359.6 92.5 360.6 92.6 361.6 92.7 362.6 92.7 363.8 92.7 364.8 91.7 365.6 91 365.8 90.1 365.8 89.2 366 88.3 366.2 87.6 365.9 86.9 365.7 86.2 365.5 85.2 365.4 84.2 365.1 83.3 365 82.8 364.8 81.7 364.5 81.3 364.2 80.8 364.4 81 363.8 81.1 363.6 81.1 362.3 81.2 362.3 81.3 359.4 83.5 355.7 85 352.5 86.9 351.3 86.9 350.1 86.9 348.8 86.9 348.6 86.9 347.6 85.9 347.5 85.7 346.2 84 347.8 83.6 349.2 83.2 350.5 82.8 351.8 82.1 353 81.5 355.5 80.3 357.9 78.9 360.6 78.1 362.3 77.6 364.1 77.2 365.9 77.1 366.1 77.1 366.5 76.4 366.7 76.3 367.1 76.1 367.5 76.2 367.9 76.1 368.9 76 369.9 75.7 370.9 75.7 371.7 75.5 372.7 75.5 373.5 75.9Z" fill="#802358" fill-rule="evenodd" clip-rule="evenodd"/><path d="M364.2 95.8C363.6 95.8 363.1 95.7 362.5 95.6 362.1 95.5 361.7 95.4 361.3 95.4 361.1 95.4 360.8 95.4 360.5 95.4 360.4 95.4 360.2 95.4 360.1 95.4 360 95.4 359.8 95.4 359.7 95.4 359 95.4 358.2 95.4 357.4 94.9 356.9 94.6 356.5 94.5 356 94.4 355.6 94.3 355.3 94.2 354.9 94 354.8 93.9 354.6 93.9 354.5 93.8 353.4 93.4 352 92.8 352 91.6L352 91.3 352.2 91.5C352.9 92 353.9 92.1 354.8 92.1 355.1 92.1 355.3 92.1 355.6 92.1 356.1 92.1 356.5 92.2 357 92.2 357.8 92.2 358.6 92.3 359.4 92.4L360 92.5C360.8 92.6 361.6 92.7 362.4 92.7L362.4 92.7C363.4 92.7 364.3 92 365 91.4 365.1 91.3 365.2 91.2 365.3 91.1 365.4 90.7 365.4 90.3 365.5 90 365.6 89.5 365.6 89 365.8 88.5 365.9 88 365.8 87.5 365.6 86.9 365.6 86.7 365.5 86.6 365.5 86.4 365.4 85.9 365.3 85.4 365.2 84.9 365.1 84.4 365 84 364.9 83.5 364.9 83.4 364.9 83.3 364.8 83.1 364.7 82.6 364.6 81.9 364.3 81.5L364.2 81.4C364.2 81.3 364.1 81.3 364.1 81.3 364.1 81.3 364.1 81.3 364.1 81.3 364 81.3 363.9 81.4 363.7 81.4 363.7 81.4 363.5 81.4 363.4 81.4 363.1 81.4 362.4 81.5 362.3 81.5 360.4 82.9 358.2 84.1 356 85.2 354.8 85.8 353.6 86.4 352.4 87.1L352.4 87.1 348.7 87.1C348.3 87.1 347.3 85.9 347.3 85.8 346.9 85.2 346.7 84.8 346.8 84.4 347 83.7 348 83.4 348.9 83.2L349.1 83.2C350.1 82.9 351 82.4 351.9 82 352.2 81.8 352.6 81.7 352.9 81.5 353.7 81.1 354.4 80.8 355.1 80.4 356.8 79.5 358.6 78.7 360.5 78.1 362.4 77.5 364.1 77.2 365.8 77.1 365.8 77.1 366 76.9 366.1 76.8 366.3 76.6 366.4 76.4 366.6 76.3 366.9 76.2 367.2 76.2 367.5 76.1 367.6 76.1 367.7 76.1 367.9 76.1 368.2 76.1 368.6 76 368.9 75.9 369.5 75.8 370.2 75.7 370.9 75.7 371 75.7 371.2 75.7 371.4 75.7 372.3 75.7 373 75.8 373.6 76 374.5 76.3 374.9 77 374.9 77.8 374.8 79.3 373.7 80.1 371.7 80.2 371.4 80.2 371 80.2 370.5 80.1 370 80.1 369.4 80 368.8 80 367.8 80 367.3 80.2 367 80.5 366.7 80.9 367.1 81.6 367.3 82.2 367.5 82.5 367.6 82.9 367.6 83.1 367.8 84 367.9 85 367.9 86.3 368 88.3 368 90.4 368 92.3 368 93.9 366.7 95.4 364.9 95.9 364.7 95.7 364.5 95.8 364.2 95.8ZM360.6 95.1C360.9 95.1 361.2 95.1 361.4 95.1 361.8 95.1 362.2 95.2 362.6 95.3 363.1 95.4 363.7 95.5 364.2 95.5 364.5 95.5 364.7 95.5 364.9 95.4 366.6 95 367.8 93.6 367.8 92.1 367.8 90.2 367.8 88.1 367.7 86.1 367.6 84.8 367.5 83.8 367.4 82.9 367.4 82.7 367.2 82.4 367.1 82 366.8 81.3 366.5 80.6 366.8 80.1 367.1 79.7 367.7 79.5 368.8 79.5 369.4 79.5 370 79.6 370.5 79.6 370.9 79.6 371.3 79.7 371.5 79.7L371.6 79.7C373.5 79.6 374.4 78.9 374.5 77.6 374.5 76.8 374.2 76.3 373.4 76 372.9 75.8 372.2 75.7 371.3 75.7 371.1 75.7 371 75.7 370.8 75.7 370.1 75.7 369.5 75.8 368.9 75.9 368.6 76 368.2 76 367.9 76.1 367.8 76.1 367.7 76.1 367.5 76.1 367.2 76.1 366.9 76.1 366.7 76.2 366.6 76.2 366.4 76.4 366.3 76.6 366.1 76.8 366 77 365.8 77 364.1 77.1 362.3 77.5 360.5 78 358.6 78.6 356.8 79.5 355.1 80.3 354.4 80.7 353.6 81 352.8 81.4 352.5 81.6 352.1 81.7 351.8 81.9 350.9 82.3 349.9 82.8 349 83.1L348.8 83.1C347.9 83.4 347.1 83.6 346.9 84.2 346.8 84.5 346.9 84.9 347.3 85.4 347.5 85.7 348.4 86.5 348.6 86.6L352.2 86.6C353.3 85.9 354.6 85.3 355.8 84.7 358 83.6 360.2 82.5 362.1 81 362.1 81 362.2 81 363.3 80.9 363.5 80.9 363.6 80.9 363.6 80.9 363.8 80.9 363.9 80.8 363.9 80.8 364 80.8 364 80.8 364 80.8 364.1 80.8 364.2 80.9 364.3 81L364.4 81.1C364.7 81.5 364.8 82.2 364.9 82.8 364.9 82.9 365 83.1 365 83.2 365.1 83.7 365.2 84.2 365.3 84.6 365.4 85.1 365.5 85.6 365.6 86.1 365.6 86.3 365.7 86.4 365.7 86.6 365.9 87.1 366 87.7 365.9 88.3 365.8 88.8 365.7 89.3 365.6 89.8 365.6 90.2 365.5 90.6 365.4 91L365.4 91 365.4 91C365.3 91.1 365.2 91.2 365.1 91.3 364.3 92 363.4 92.7 362.4 92.7 361.6 92.7 360.7 92.6 359.9 92.5L359.3 92.4C358.5 92.3 357.7 92.3 356.9 92.2 356.4 92.2 356 92.1 355.5 92.1 355.3 92.1 355 92.1 354.7 92.1 353.8 92.1 352.9 92 352.2 91.6 352.4 92.5 353.6 92.9 354.5 93.3 354.7 93.4 354.8 93.4 354.9 93.5 355.3 93.7 355.6 93.8 356 93.8 356.5 93.9 357 94.1 357.5 94.4 358.2 94.8 359 94.9 359.6 94.9 359.7 94.9 359.9 94.9 360 94.9 360.3 95.1 360.4 95.1 360.6 95.1Z" fill="#802358"/></g><g><path d="M347.1 75C347.2 75.2 357.4 70.1 358.2 69.7 359.6 68.9 361.1 68.5 362.6 67.9 363.7 67.4 364.8 66.8 365.8 66.3 367.3 65.4 372.9 63.6 373.8 63.6 375.7 63.5 376.7 64.5 376.6 66.5 376.4 68.6 374.1 70 372.3 71 369.8 72.3 367.4 73.6 365.1 75.2 364.8 73.7 366.7 72.8 367.6 71.8 369.2 70.1 370.8 68.3 372.2 66.4 370.1 65.8 367.5 67.2 365.8 68.2 364.9 68.7 364 69.3 363 69.7 362.3 70 361.5 70.2 360.8 70.6 360.1 71 359.8 71.6 359.2 72.2 358.6 72.7 357.9 72.9 357.3 73.4 356.3 74.4 355 75 353.8 75.8 352.4 76.7 351 77.5 349.5 78.2 348.1 78.9 346.6 80 345 80.1 342.9 80.2 341.8 78.3 342.7 76.6 343.5 75.2 344.7 75.4 346 74.8 346.9 74.4 347.7 73.7 348.6 73.1 350.4 71.8 352.5 71.1 354.4 70.1 355.6 69.4 356.8 68.7 358 68 358.6 67.7 359.2 67.3 359.8 67 360.3 66.7 361.3 66.5 361.8 66.2 364 64.3 367.2 63.4 368.4 60.6 368.6 60.2 366.8 60.4 366.7 60.4 366.2 60.2 366.1 59.3 366 58.9 366 59 364.1 60 363.9 60.1 363.4 60.4 361.1 61.3 360.7 60.4 360.5 59.9 361.8 59 362.2 58.7 363 57.9 363.6 57.1 364.3 56.2 364.2 56.3 362.5 55.2 362.1 55.3 361.3 55.5 361 56.6 360.7 57.2 360.1 58.5 359.1 60.7 357.2 59.6 356.1 60.8 355 62.3 354.2 63.7 353.8 64.4 353.7 65.6 353.1 66 352.6 66.5 351.8 66.3 351.7 67.2 347.8 66 349.2 60.3 349.3 57.4 349.3 56.3 349.3 55.1 349.2 54 350.8 54.2 352 54.6 352.5 56.2 353 57.8 352.9 59.5 352.8 61.1 353.6 60.8 354.4 60.2 355.1 59.6 355.7 59.1 356.4 58.4 356.4 57.6 356.5 56.7 356.3 55.9 356.2 55 356.1 54.3 355.8 54.4 355.6 53.8 355.3 53.2 355.5 52.1 355.4 51.4 355.3 50.6 355 49.9 354.7 49.2 354.4 48.5 354.1 47.9 353.8 47.2 353.6 46.6 353.5 45.2 353.2 44.7 353 44.5 352.8 44.4 352.5 44.3 352.3 43.5 352.8 43.3 352.7 42.6 353.2 42.5 353.1 42.9 353.2 43.2 353.2 42.9 355.6 43.8 355.8 43.9 356.6 44.4 357.2 45 357.8 45.6 358.6 46.4 359.6 47.3 360.9 47.5 361.6 47.6 362.2 47.4 362.8 47.4 363.6 47.3 364.5 47.5 365.3 47.2 365.7 47 366.1 46.8 366.3 46.5 366.5 46.2 366.4 45.8 366.6 45.4 366.8 45.1 367.2 44.9 367.4 44.6 367.7 44.3 367.8 43.9 368 43.5 368.3 42.9 369 42.6 369.4 42 369.7 41.5 369.8 40.9 370.3 40.6 370.7 40.3 374 39.8 374.1 40.5 374.6 43 373.5 44.1 372 45.2 371.9 45.2 372.5 45.4 372.6 45.4 372.8 45.3 372.9 45 373 44.9 373.2 44.7 373.3 44.5 373.5 44.4 375.4 43.4 377.2 42.4 379.5 42.2 381.5 42 384.3 42.1 385.7 43.7 386.3 44.4 385.5 47.1 385.2 47.9 385 48.4 384.6 48.9 384.2 49.4 383.7 49.9 383.7 50.4 383.4 51 383.2 51.5 382.5 51.8 382.2 52.3 381.9 52.8 381.6 53.3 381.3 53.8 381 54.3 380.7 54.8 380.3 55.2 380 55.5 379.6 55.7 379.3 56.1 379.1 56.4 379.1 57 378.8 57.2 378.7 57.3 378.3 57.4 378.2 57.5 377.8 58.1 377.9 58.6 377.3 59.2 376.8 59.7 376.2 60 376.2 60.8 374 61.9 372.3 62.8 369.6 61.9 366.6 64.6 351.1 73 347.1 75ZM371.4 51.8C374.1 50.6 375.5 55.7 373.7 57.8 376.3 56.9 377.9 55 378.7 52.4 378.9 52.4 379.2 52.4 379.4 52.4 379.9 49.8 381.9 48.6 381.7 45.3 377.6 44.2 374.5 46.9 371.4 48.1 371.5 49.4 372.3 50.9 371.4 51.8ZM360.4 49.9C360.4 50.5 360.4 51.2 360.4 51.8 361.8 51.8 362.3 50.9 362.7 49.9 361.8 49.7 361.5 49.7 360.4 49.9ZM363.8 54C364.6 54 365.3 54 366.1 54 365.7 53.1 367.4 52.3 366.1 51.9 365.2 52.4 364.6 53.3 363.8 54ZM360.4 54.6C361 54.5 361.1 53.9 361.3 53.5 360.9 53.4 361.1 52.8 360.4 53.1 360.4 53.6 360.4 54.1 360.4 54.6ZM371.1 57.4C371.1 57.2 371.5 57.2 371.8 57.2 371.8 56.6 371.8 55.9 371.8 55.3 371.1 55.5 371.2 55 370.9 54.9 371 55.6 370.1 57 371.1 57.4Z" fill="#802358" fill-rule="evenodd" clip-rule="evenodd"/><path d="M344.6 80C343.6 80 342.8 79.6 342.4 78.8 341.9 78 342 77.1 342.4 76.2 343 75.2 343.8 75 344.7 74.7 345.1 74.6 345.5 74.5 345.8 74.3 346.5 74 347.1 73.5 347.8 73.1 348 73 348.2 72.8 348.4 72.7 349.6 71.9 350.9 71.3 352.2 70.7 352.9 70.4 353.6 70 354.3 69.7 355.1 69.3 355.9 68.8 356.6 68.4 357 68.1 357.5 67.9 357.9 67.6 358.6 67.2 359.2 66.9 359.7 66.6 359.9 66.5 360.2 66.4 360.5 66.3 361 66.1 361.4 66 361.7 65.8 362.5 65.2 363.3 64.6 364.2 64.1 365.8 63.1 367.5 62.1 368.3 60.3 368.3 60.3 368.1 60.2 367.7 60.2 367.5 60.2 367.4 60.2 367.2 60.2 367.1 60.2 367 60.2 366.9 60.2 366.8 60.2 366.7 60.2 366.7 60.2 366.3 60 366.1 59.3 366 58.9 365.8 59.1 365.3 59.3 364.2 59.9 364.1 59.9 364.1 60 364 60 363.6 60.2 362.4 60.7 361.5 60.7 361 60.7 360.8 60.6 360.6 60.3 360.4 59.8 361.2 59.2 361.8 58.7 361.9 58.6 362 58.5 362.1 58.5 362.8 57.9 363.3 57.3 363.8 56.6 363.9 56.5 364 56.3 364.1 56.2 363.9 56.1 363.7 56 363.4 55.9 363 55.7 362.4 55.4 362.1 55.4 361.5 55.5 361.2 56.2 361 56.8 360.9 57 360.9 57.1 360.8 57.3L360.7 57.5C360.2 58.6 359.4 60 358.2 60 357.9 60 357.6 59.9 357.3 59.8 356.1 61.1 355.1 62.5 354.4 63.8 354.3 64 354.2 64.3 354.1 64.7 353.9 65.3 353.7 65.9 353.3 66.2 353.1 66.4 352.8 66.5 352.6 66.5 352.2 66.6 351.9 66.7 351.9 67.3L351.9 67.4 351.8 67.4C348.5 66.3 348.9 62.2 349.2 59.1 349.3 58.5 349.3 57.9 349.3 57.4 349.3 56.3 349.3 55.2 349.2 54L349.2 53.9 349.3 53.9C351 54.1 352.2 54.5 352.7 56.1 353.2 57.6 353.1 59.3 353 60.9 353.8 60.5 354.6 59.9 355.1 59.5 355.6 59 356.3 58.3 356.4 57.6 356.5 56.8 356.4 56.1 356.3 55.3L356.3 55C356.3 54.6 356.2 54.5 356 54.3 355.9 54.2 355.8 54.1 355.7 53.8 355.5 53.4 355.5 52.8 355.5 52.3 355.5 51.9 355.5 51.6 355.5 51.3 355.4 50.7 355.2 50 354.8 49.2 354.7 48.9 354.6 48.7 354.5 48.4 354.3 48 354.1 47.6 354 47.2 353.9 47 353.8 46.6 353.8 46.2 353.7 45.6 353.6 45 353.4 44.8 353.2 44.6 353 44.5 352.8 44.4L352.7 44.4 352.7 44.3C352.6 43.8 352.7 43.5 352.8 43.3 352.9 43.1 352.9 42.9 352.9 42.6L352.9 42.5 353 42.5C353.5 42.4 353.6 42.8 353.6 43.1 354.1 43.1 355.9 43.8 356.1 43.9 356.8 44.3 357.3 44.9 357.9 45.4L358.1 45.6C358.9 46.4 359.9 47.3 361.1 47.5 361.5 47.6 361.9 47.5 362.4 47.4 362.6 47.4 362.8 47.3 363 47.3 363.2 47.3 363.4 47.3 363.6 47.3L364 47.3C364.5 47.3 365 47.3 365.4 47.1 365.7 47 366.1 46.8 366.3 46.4 366.4 46.3 366.4 46.1 366.5 45.9 366.5 45.7 366.6 45.5 366.7 45.3 366.8 45.1 367 45 367.2 44.9 367.3 44.8 367.5 44.7 367.6 44.6 367.8 44.4 367.9 44.2 368 43.9 368.1 43.8 368.1 43.6 368.2 43.5 368.4 43.2 368.7 42.9 369 42.7 369.2 42.5 369.5 42.3 369.6 42 369.7 41.8 369.8 41.6 369.9 41.4 370 41.1 370.2 40.7 370.5 40.5 370.8 40.2 372.3 40 373.3 40 374.1 40 374.5 40.1 374.6 40.4 375.1 42.9 374.1 44 372.6 45.1 372.7 45.1 372.9 45.2 373 45.2 373.1 45.2 373.2 45.1 373.2 44.9 373.2 44.8 373.3 44.7 373.4 44.7 373.5 44.6 373.5 44.6 373.6 44.5 373.7 44.4 373.8 44.2 374 44.1 376 43 377.8 42.1 380 41.9 380.5 41.9 381 41.8 381.4 41.8 383 41.8 385.1 42.1 386.2 43.4 386.9 44.2 386 47 385.7 47.7 385.4 48.3 385.1 48.8 384.7 49.2 384.4 49.5 384.3 49.8 384.2 50.2 384.1 50.4 384.1 50.5 384 50.7 383.9 51 383.6 51.3 383.3 51.5 383.1 51.7 382.9 51.8 382.8 52 382.6 52.3 382.4 52.7 382.2 53 382.1 53.2 382 53.3 381.9 53.4L381.9 53.4C381.6 53.9 381.3 54.4 380.9 54.8 380.8 54.9 380.6 55.1 380.5 55.2 380.3 55.3 380.1 55.5 380 55.7 379.9 55.8 379.9 56 379.8 56.2 379.7 56.4 379.7 56.7 379.5 56.9 379.4 57 379.3 57 379.1 57.1 379 57.1 378.9 57.2 378.9 57.2 378.7 57.4 378.7 57.6 378.6 57.9 378.5 58.2 378.4 58.6 378 58.9 377.9 59 377.8 59 377.7 59.1 377.3 59.5 376.9 59.7 376.9 60.3L376.9 60.4 376.7 60.5C375.2 61.2 373.9 61.9 372.3 61.9 371.6 61.9 370.9 61.8 370.2 61.5 367.5 63.9 356.8 69.9 350.8 73.1 353.8 71.6 358 69.6 358.5 69.3 359.4 68.8 360.3 68.5 361.2 68.2 361.8 68 362.3 67.8 362.9 67.5 364 67 365.1 66.4 366.1 65.9 367.6 65 373.2 63.2 374.2 63.1 375.2 63.1 376 63.3 376.5 63.8 377 64.3 377.2 65.1 377.1 66 376.9 68.3 374.2 69.8 372.7 70.6L371.7 71.1C369.5 72.3 367.5 73.4 365.4 74.8L365.2 74.9 365.2 74.7C365 73.5 366 72.7 366.9 71.9 367.2 71.6 367.5 71.4 367.7 71.2 369.2 69.7 370.7 67.9 372.1 66 371.8 65.9 371.5 65.9 371.2 65.9 369.4 65.9 367.5 67 366 67.8L365.9 67.8C365.7 67.9 365.4 68.1 365.2 68.2 364.5 68.6 363.8 69 363.1 69.3 362.8 69.4 362.5 69.5 362.3 69.6 361.8 69.8 361.4 69.9 361 70.1 360.5 70.4 360.3 70.7 360 71 359.8 71.2 359.6 71.4 359.4 71.6 359.1 71.9 358.8 72 358.5 72.2 358.2 72.4 357.8 72.5 357.5 72.8 356.7 73.6 355.7 74.1 354.8 74.7 354.5 74.9 354.2 75 353.9 75.2L353.8 75.3C352.5 76.1 351.1 77 349.6 77.7 349.2 77.9 348.8 78.1 348.3 78.4 347.2 79 346.2 79.6 345 79.7 344.8 80 344.7 80 344.6 80ZM367.6 60.1C368.1 60.1 368.4 60.2 368.5 60.3 368.5 60.4 368.5 60.4 368.5 60.5 367.7 62.4 365.9 63.4 364.3 64.4 363.5 64.9 362.6 65.5 361.8 66.1 361.5 66.3 361 66.5 360.5 66.7 360.2 66.8 360 66.9 359.8 67 359.2 67.3 358.7 67.6 358 68 357.6 68.3 357.1 68.5 356.7 68.8 355.9 69.2 355.2 69.7 354.4 70.1 353.7 70.5 353 70.8 352.3 71.1 351 71.7 349.7 72.3 348.6 73.1 348.4 73.2 348.2 73.4 348 73.5 347.4 74 346.7 74.4 346 74.8 345.6 75 345.2 75.1 344.8 75.2 343.9 75.4 343.2 75.6 342.7 76.5 342.3 77.3 342.3 78.1 342.7 78.8 343.1 79.5 343.9 79.9 344.9 79.8 346 79.7 347.1 79.1 348.1 78.6 348.5 78.4 349 78.1 349.4 77.9 350.8 77.2 352.2 76.4 353.5 75.6L353.6 75.5C353.9 75.3 354.2 75.1 354.5 75 355.4 74.4 356.4 73.9 357.1 73.1 357.4 72.8 357.8 72.6 358.1 72.4 358.4 72.2 358.7 72.1 359 71.8 359.2 71.6 359.4 71.4 359.6 71.2 359.9 70.8 360.2 70.5 360.7 70.2 361.1 70 361.6 69.8 362.1 69.6 362.4 69.5 362.7 69.4 362.9 69.3 363.6 69 364.3 68.6 365 68.2 365.2 68.1 365.5 67.9 365.7 67.8L365.8 67.8C367.2 67 369.2 65.9 371.1 65.9 371.5 65.9 371.9 66 372.3 66.1L372.5 66.2 372.4 66.3C370.9 68.3 369.3 70.1 367.8 71.7 367.6 71.9 367.3 72.2 367 72.4 366.2 73.1 365.3 73.8 365.3 74.7 367.3 73.4 369.3 72.3 371.4 71.1L372.4 70.6C373.8 69.8 376.4 68.4 376.6 66.2 376.7 65.3 376.5 64.6 376.1 64.2 375.7 63.7 374.9 63.5 374 63.5 373.1 63.5 367.5 65.4 366 66.2 365 66.8 363.9 67.4 362.8 67.9 362.2 68.1 361.6 68.4 361.1 68.6 360.2 68.9 359.3 69.3 358.5 69.7 358 70 347.9 75.1 347.4 75.1L347.4 75.1 347 75.1 346.9 74.9 347 74.9C351.5 72.6 366.6 64.3 369.6 61.6L369.7 61.6 369.8 61.6C370.5 61.8 371.2 62 371.9 62 373.4 62 374.7 61.4 376.2 60.6L376.3 60.6C376.3 59.9 376.7 59.6 377.2 59.2 377.3 59.1 377.4 59.1 377.4 59 377.7 58.7 377.8 58.4 377.9 58.1 378 57.9 378.1 57.6 378.3 57.3 378.4 57.2 378.5 57.2 378.6 57.1 378.7 57.1 378.8 57 378.9 57 379 56.9 379.1 56.7 379.1 56.5 379.1 56.3 379.2 56.1 379.3 55.9 379.4 55.7 379.7 55.5 379.9 55.4 380 55.3 380.2 55.2 380.3 55.1 380.7 54.7 381 54.2 381.2 53.7L381.2 53.7C381.3 53.6 381.4 53.4 381.5 53.3 381.7 52.9 381.9 52.6 382.1 52.2 382.3 52 382.5 51.8 382.7 51.6 383 51.4 383.2 51.2 383.3 50.9 383.4 50.7 383.4 50.6 383.5 50.4 383.6 50 383.7 49.6 384.1 49.3 384.5 48.9 384.8 48.4 385.1 47.9 385.5 47 386.2 44.5 385.6 43.9 384.5 42.6 382.5 42.4 380.9 42.4 380.4 42.4 380 42.4 379.5 42.5 377.3 42.7 375.5 43.6 373.6 44.7 373.5 44.8 373.4 44.9 373.3 45 373.2 45.1 373.2 45.1 373.1 45.2 373.1 45.2 373 45.3 373 45.4 372.9 45.5 372.8 45.7 372.6 45.8 372.6 45.8 372.6 45.8 372.5 45.8 372.4 45.8 371.8 45.7 371.8 45.5L371.8 45.4 371.9 45.3C373.4 44.1 374.4 43.1 373.9 40.7 373.9 40.6 373.6 40.5 372.9 40.5 371.9 40.5 370.5 40.8 370.3 40.9 370 41.1 369.9 41.4 369.8 41.7 369.7 41.9 369.6 42.1 369.5 42.3 369.3 42.6 369.1 42.8 368.8 43 368.5 43.3 368.3 43.5 368.1 43.8 368 43.9 368 44.1 367.9 44.2 367.8 44.4 367.7 44.7 367.5 44.9 367.4 45 367.2 45.2 367.1 45.3 366.9 45.4 366.8 45.5 366.7 45.7 366.6 45.8 366.6 46 366.5 46.2 366.5 46.4 366.4 46.6 366.3 46.8 366 47.2 365.6 47.4 365.3 47.6 364.8 47.8 364.3 47.8 363.8 47.8L363.4 47.8C363.2 47.8 363 47.8 362.8 47.8 362.6 47.8 362.4 47.8 362.2 47.9 361.8 48 361.3 48 360.8 48 359.5 47.8 358.5 47 357.7 46.1L357.5 45.9C357 45.4 356.4 44.8 355.8 44.4 355.6 44.3 353.9 43.6 353.4 43.6 353.4 43.6 353.4 43.6 353.4 43.6 353.4 43.6 353.5 43.6 353.4 43.5L353.1 43.5C353.1 43.5 353.1 43.5 353.1 43.5L353.1 43.5 353.1 43.5C353.1 43.5 353.1 43.5 353.1 43.4 353.1 43.1 353.1 43 352.9 43 352.9 43 352.9 43 352.9 43 352.9 43.3 352.8 43.5 352.8 43.7 352.7 43.9 352.6 44.2 352.7 44.5 352.9 44.6 353.2 44.7 353.4 44.9 353.6 45.2 353.8 45.8 353.8 46.4 353.9 46.8 353.9 47.1 354 47.4 354.2 47.8 354.3 48.2 354.5 48.6 354.6 48.9 354.7 49.1 354.8 49.4 355.1 50.2 355.4 50.9 355.5 51.6 355.6 51.9 355.5 52.2 355.5 52.6 355.5 53.1 355.5 53.6 355.6 54 355.7 54.2 355.8 54.3 355.9 54.4 356.1 54.6 356.2 54.7 356.3 55.2L356.3 55.5C356.4 56.3 356.5 57.1 356.4 57.8 356.3 58.6 355.6 59.4 355 59.8 354.5 60.2 353.6 61 352.7 61.3L352.5 61.4 352.5 61C352.6 59.4 352.6 57.8 352.2 56.3 351.7 54.8 350.7 54.4 349.1 54.2 349.2 55.4 349.2 56.4 349.1 57.5 349.1 58 349 58.6 349 59.2 348.7 62.1 348.4 66.1 351.3 67.1 351.4 66.6 351.8 66.4 352.2 66.3 352.4 66.2 352.6 66.1 352.8 66 353.1 65.7 353.3 65.2 353.5 64.6 353.6 64.3 353.7 63.9 353.9 63.7 354.6 62.3 355.7 60.9 356.9 59.5L357 59.4 357.1 59.4C357.4 59.6 357.7 59.7 358 59.7 359.1 59.7 359.8 58.3 360.3 57.3L360.4 57.1C360.5 57 360.5 56.8 360.6 56.6 360.9 56 361.2 55.2 361.9 55.1 362.1 55.1 362.6 55.3 363.3 55.6 363.6 55.8 364 55.9 364.1 55.9L364.1 55.9C364.1 55.9 364.1 55.9 364 55.9L364.2 56.1C364.2 56.1 364.2 56.1 364.2 56.1L364.2 56.1C364.1 56.3 363.9 56.5 363.8 56.6 363.3 57.3 362.8 57.9 362.1 58.6 362 58.7 361.9 58.7 361.8 58.8 361.4 59.1 360.5 59.8 360.7 60.1 360.8 60.3 361 60.4 361.3 60.4 362.1 60.4 363.3 59.9 363.7 59.7 363.7 59.7 363.8 59.7 363.9 59.6 365.4 58.9 365.7 58.6 365.8 58.6 365.8 58.6 365.8 58.6 365.8 58.7L366 58.6C366 58.7 366 58.7 366 58.8 366.1 59.2 366.2 59.8 366.6 60 366.6 60 366.6 60 366.7 60L366.7 60C366.8 60 366.9 60 367 60 367.3 60.1 367.4 60.1 367.6 60.1ZM373.2 58.1 373.5 57.7C374.5 56.6 374.5 54.5 373.9 53.2 373.5 52.3 372.8 51.8 372.1 51.8 371.9 51.8 371.6 51.9 371.4 52L371.3 51.8C372 51.1 371.7 50.2 371.5 49.3 371.4 48.9 371.3 48.6 371.3 48.3L371.3 48.2 371.4 48.2C372.2 47.9 373.1 47.5 373.9 47 375.7 46.1 377.6 45.1 379.8 45.1 380.4 45.1 381.1 45.2 381.7 45.4L381.8 45.4 381.8 45.5C381.9 47.5 381.2 48.7 380.6 49.9 380.2 50.7 379.7 51.5 379.5 52.6L379.5 52.7 378.8 52.7C377.8 55.5 376.2 57.2 373.7 58L373.2 58.1ZM372.1 51.5C372.9 51.5 373.6 52.1 374.1 53.1 374.7 54.4 374.8 56.3 374 57.6 376.2 56.7 377.7 55 378.6 52.5L378.6 52.4 379.3 52.4C379.5 51.4 380 50.5 380.4 49.7 381.1 48.5 381.7 47.3 381.6 45.5 381 45.3 380.4 45.3 379.8 45.3 377.7 45.3 375.8 46.2 374 47.2 373.1 47.6 372.3 48 371.5 48.3 371.5 48.6 371.6 48.9 371.7 49.2 371.9 50 372.2 50.9 371.7 51.6 371.9 51.6 372 51.5 372.1 51.5ZM371.2 57.6 371.1 57.5C370.3 57.2 370.5 56.4 370.7 55.7 370.8 55.4 370.8 55 370.8 54.8L370.8 54.6 371 54.6C371.2 54.6 371.3 54.8 371.3 54.9 371.4 55 371.4 55.1 371.6 55.1 371.7 55.1 371.8 55.1 371.9 55L372.1 54.9 372.1 57.1 372 57.1C371.9 57.1 371.8 57.1 371.8 57.1 371.5 57.1 371.5 57.2 371.5 57.2L371.2 57.6ZM371 55.1C371 55.3 370.9 55.6 370.9 55.8 370.7 56.5 370.7 57 371.1 57.2 371.2 57 371.5 57 371.6 57 371.6 57 371.7 57 371.7 57L371.7 55.4C371.6 55.4 371.6 55.4 371.5 55.4 371.2 55.4 371.1 55.3 371 55.1 371 55.1 371 55.1 371 55.1ZM360.2 54.8 360.2 53 360.3 53C360.4 53 360.5 52.9 360.6 52.9 360.9 52.9 361 53.1 361.1 53.2 361.2 53.3 361.2 53.4 361.3 53.4L361.5 53.4 361.4 53.5C361.3 53.6 361.3 53.7 361.2 53.8 361 54.1 360.9 54.5 360.4 54.6L360.2 54.8ZM360.5 53.2 360.5 54.4C360.8 54.3 360.9 54.1 361 53.8 361 53.7 361.1 53.6 361.1 53.6 361 53.5 361 53.4 360.9 53.4 360.8 53.3 360.8 53.2 360.6 53.2 360.6 53.2 360.6 53.2 360.5 53.2ZM366.3 54.1 363.5 54.1 363.8 53.9C364.2 53.6 364.5 53.3 364.8 52.9 365.2 52.5 365.6 52 366.1 51.7L366.1 51.7 366.2 51.7C366.5 51.8 366.7 51.9 366.8 52.1 366.9 52.3 366.7 52.6 366.6 52.9 366.4 53.2 366.2 53.6 366.3 53.9L366.3 54.1ZM364.1 53.8 365.9 53.8C365.8 53.4 366 53 366.2 52.7 366.3 52.5 366.5 52.3 366.4 52.1 366.4 52 366.2 51.9 366.1 51.9 365.6 52.2 365.3 52.6 364.9 53 364.6 53.3 364.4 53.6 364.1 53.8ZM360.2 52 360.2 49.8 360.3 49.8C360.9 49.7 361.2 49.6 361.6 49.6 361.9 49.6 362.2 49.6 362.7 49.8L362.8 49.8 362.7 49.9C362.3 50.9 361.8 51.9 360.3 51.9L360.2 52ZM360.5 50 360.5 51.7C361.7 51.6 362.1 50.9 362.5 50 362.1 49.9 361.9 49.9 361.6 49.9 361.3 49.9 361 49.9 360.5 50Z" fill="#802358"/></g></g><g><g><path d="M169.9 106.2C170.7 106.2 172.1 106.3 173.6 106.3 174.3 106.3 175 106.3 175.3 106.3 175.4 106.6 175.7 107 176.3 107.7 178.6 110.4 182.9 115.5 184.6 117.3 184.6 117.3 184.7 117.3 184.7 117.3 184.7 114.1 184.8 110.4 184.6 108.8 184.5 108 184.3 107.6 183.5 107.4 183 107.3 182.5 107.2 181.8 107.1 181.7 107 181.7 106.4 181.8 106.3 182.5 106.3 183.7 106.4 185.4 106.4 186.7 106.4 187.9 106.3 188.4 106.3 188.5 106.4 188.5 107 188.4 107.1 188 107.2 187.7 107.2 187.3 107.3 186.6 107.5 186.3 107.8 186.2 108.8 186 110.9 186 114.5 186 118.2 186 119.3 186 120.8 186.1 121.6 185.7 121.5 184.2 121.6 183.7 121.6 182.2 119.6 175.8 111.9 174.1 109.9 174 109.8 174 109.9 174 109.9 173.9 112.6 174 117.8 174.1 118.9 174.2 119.9 174.5 120.3 175.3 120.5 175.7 120.6 176.2 120.7 176.9 120.7 177 120.8 177 121.4 176.8 121.5 176 121.5 174.8 121.4 173.5 121.4 172 121.4 170.9 121.5 170.1 121.5 170 121.4 170 120.8 170.1 120.7 170.7 120.6 171.1 120.6 171.6 120.4 172.2 120.2 172.4 119.8 172.5 119 172.7 117.7 172.7 113.2 172.8 109 172.8 108.5 172.5 107.8 171.9 107.5 171.4 107.3 170.9 107.2 170.1 107.1 169.8 106.9 169.8 106.3 169.9 106.2Z" fill="#802358"/></g><g><path d="M196.2 113.6C195.8 113 195 112.8 194.3 112.8 193.7 112.8 193.2 113 193.1 113.1 192.9 113.3 192.4 114.2 192.1 114.7 192 114.8 191.2 114.4 191.2 114.3 191.2 114.1 191.6 112.9 191.8 112.7 193.1 111.8 195 111.2 195.7 111.2 197.1 111.2 198.1 111.8 198.7 112.6 199.2 113.3 199.4 114.2 199.4 115.1 199.4 116.3 199.3 118 199.3 119 199.3 119.5 199.5 120 200.1 120 200.4 120 200.7 120 201 119.9 201 120 200.9 120.7 200.9 120.8 200.2 121.4 199.1 121.7 198.2 121.7 197.4 121.7 196.8 121.4 196.7 121L196.5 120.5C196.5 120.4 196.4 120.4 196.4 120.4 195.1 121.2 193.9 121.6 193.4 121.6 192.8 121.6 192.3 121.4 191.9 121 191.3 120.4 190.9 119.6 190.9 118.6 190.9 118.3 191.2 117.4 191.4 117.1 192.2 116.7 195.5 116 196.4 115.5 196.5 115.5 196.6 115.3 196.6 115.2 196.6 115 196.6 114.9 196.6 114.8 196.6 114.5 196.5 114 196.2 113.6ZM196.4 116.4C195.6 116.7 194.2 117.1 193.9 117.3 193.8 117.4 193.7 117.9 193.7 118.1 193.7 119.2 194.6 119.9 195.5 119.9 195.8 119.9 196.1 119.8 196.3 119.7 196.4 119.6 196.5 119.5 196.5 119.2 196.6 118.5 196.6 117 196.6 116.5 196.5 116.5 196.5 116.4 196.4 116.4Z" fill="#802358"/></g><g><path d="M204.1 120.4C204.5 120.3 204.6 120 204.7 119.5 204.7 118.8 204.8 116.8 204.8 115.6 204.8 114.9 204.8 114 204.7 113.6 204.6 113.4 204.4 113 203.4 112.7 203.4 112.5 203.5 112.1 203.5 112 205 111.9 206.7 111.4 207.6 111 207.7 111 207.7 111.1 207.7 111.2 207.7 111.5 207.7 112.2 207.7 112.6 207.7 112.7 207.8 112.7 207.8 112.7 209.1 111.7 210.4 111.2 211.3 111.2 212.5 111.2 213.4 111.7 214 112.5 214.5 113.3 214.7 114.3 214.7 115.4 214.7 116.9 214.7 119 214.7 119.8 214.7 120 214.8 120.1 214.9 120.2 215.3 120.4 215.6 120.5 216.2 120.6 216.3 120.7 216.2 121.3 216.1 121.4 215.7 121.4 214.9 121.3 213.2 121.3 211.8 121.3 211.2 121.3 210.4 121.4 210.3 121.3 210.3 120.7 210.4 120.6 210.8 120.5 211.1 120.5 211.2 120.5 211.5 120.4 211.6 120.2 211.7 119.7 211.7 118.7 211.8 115.6 211.6 114.6 211.5 114.2 211.3 113.7 210.8 113.4 210.5 113.1 210 113 209.5 113 209 113 208.4 113.2 208 113.5 207.8 113.6 207.8 113.8 207.8 114 207.8 115.7 207.8 118.3 207.9 119.6 207.9 120.2 208.1 120.4 208.5 120.5 208.8 120.6 208.9 120.6 209.4 120.6 209.5 120.7 209.4 121.3 209.3 121.4 208.5 121.4 207.6 121.3 206.3 121.3 204.7 121.3 203.9 121.3 203.4 121.4 203.3 121.2 203.3 120.7 203.4 120.6 203.6 120.6 203.8 120.5 204.1 120.4Z" fill="#802358"/></g><g><path d="M224.7 111.5C226.6 111.5 228.7 111.4 230 111.3 230.1 111.4 230.1 112 230 112.1 229 112.3 228.4 112.5 227.8 113 227.1 113.7 226.1 114.6 225.5 115.3 225.5 115.3 225.5 115.4 225.5 115.4 226.1 116.3 228.6 119.3 229.5 120.1 230 120.5 230.3 120.6 231.3 120.6 231.4 120.7 231.3 121.3 231.2 121.4 230.7 121.5 229 121.5 228 121.5 227.3 121.5 226.8 121.2 226.5 121 225.8 120.4 224.6 118.6 223.6 117.3 223.4 117 223.1 116.7 222.8 116.7 222.8 118 222.8 118.6 222.8 119.5 222.8 120.2 223 120.4 223.5 120.5 223.8 120.6 224.1 120.6 224.4 120.7 224.5 120.8 224.4 121.4 224.3 121.5 223.7 121.5 222.8 121.4 221.3 121.4 219.8 121.4 219 121.5 218.4 121.5 218.3 121.4 218.3 120.8 218.4 120.7 218.8 120.6 219.1 120.6 219.3 120.5 219.7 120.4 219.8 120.2 219.8 119.6 219.9 118.9 219.9 116.5 219.9 115.4 219.9 109.2 219.9 107.8 219.8 107.3 219.8 107 219.7 106.7 219.3 106.6 219 106.5 218.6 106.5 218.2 106.4 218.1 106.3 218.1 105.7 218.2 105.7 219.8 105.6 222 105.3 222.9 104.9 223 104.9 223.1 105.2 223.1 105.3 222.9 105.6 222.8 106.1 222.8 107.8 222.8 109.4 222.7 111.4 222.8 116.1 223.1 116.1 223.6 115.9 224 115.5 225 114.8 226.2 113.3 226.3 112.9 226.3 112.7 226.2 112.6 225.9 112.5 225.6 112.4 224.8 112.3 224.7 112.3 224.5 112.1 224.6 111.5 224.7 111.5Z" fill="#802358"/></g><g><path d="M238.3 113.6C237.9 113 237.1 112.8 236.4 112.8 235.8 112.8 235.3 113 235.2 113.1 235 113.3 234.5 114.2 234.2 114.7 234.1 114.8 233.3 114.4 233.3 114.3 233.3 114.1 233.7 112.9 233.9 112.7 235.2 111.8 237.1 111.2 237.8 111.2 239.2 111.2 240.2 111.8 240.8 112.6 241.3 113.3 241.5 114.2 241.5 115.1 241.5 116.3 241.4 118 241.4 119 241.4 119.5 241.6 120 242.2 120 242.5 120 242.8 120 243.1 119.9 243.1 120 243 120.7 243 120.8 242.3 121.4 241.2 121.7 240.3 121.7 239.4 121.7 238.9 121.4 238.8 121L238.6 120.5C238.6 120.4 238.5 120.4 238.5 120.4 237.2 121.2 236 121.6 235.5 121.6 234.9 121.6 234.4 121.4 234 121 233.4 120.4 233 119.6 233 118.6 233 118.3 233.3 117.4 233.5 117.1 234.3 116.7 237.6 116 238.5 115.5 238.6 115.5 238.7 115.3 238.7 115.2 238.7 115 238.7 114.9 238.7 114.8 238.7 114.5 238.6 114 238.3 113.6ZM238.6 116.4C237.8 116.7 236.4 117.1 236.1 117.3 236 117.4 235.9 117.9 235.9 118.1 235.9 119.2 236.8 119.9 237.7 119.9 238 119.9 238.3 119.8 238.5 119.7 238.6 119.6 238.7 119.5 238.7 119.2 238.8 118.5 238.8 117 238.8 116.5 238.7 116.5 238.6 116.4 238.6 116.4Z" fill="#802358"/></g><g><path d="M251.3 121.4C250.8 121.4 249.8 121.3 248.3 121.3 246.9 121.3 245.9 121.4 245.4 121.4 245.3 121.3 245.3 120.7 245.4 120.6 245.8 120.5 246.1 120.5 246.4 120.4 246.7 120.3 246.8 120.1 246.9 119.5 246.9 118.9 247 117.3 247 116.1 247 115.2 247 114.3 247 113.8 247 113.6 246.9 113.4 246.8 113.2 246.6 113 246.3 112.9 245.7 112.6 245.6 112.5 245.7 112 245.8 111.9 246.5 111.9 248.8 111.6 250.1 111.1 250.1 112.1 250.1 113.9 250.1 115.4 250.1 116.7 250.1 118.4 250.1 119.5 250.1 120.1 250.3 120.3 250.6 120.5 250.8 120.6 251.1 120.6 251.6 120.7 251.5 120.7 251.4 121.3 251.3 121.4ZM249.1 109.2C248.9 109.3 247.7 109.5 247.4 109.3 247 109.1 246.7 108.7 246.6 108.2 246.5 108 246.6 107.4 246.8 107.1 247.1 106.8 247.9 106.6 248.6 106.6 249.2 106.6 249.6 106.8 249.7 106.9 249.9 107.1 249.9 107.5 249.9 107.7 249.8 108.3 249.5 108.9 249.1 109.2Z" fill="#802358"/></g><g><path d="M259.7 106.2C260.5 106.2 262.1 106.3 263.5 106.3 265.1 106.3 266.4 106.2 267.3 106.2 267.4 106.3 267.4 106.9 267.3 107 266.8 107.1 266.4 107.1 266.1 107.2 265.5 107.3 265.3 107.7 265.2 108.5 265.1 110.5 265.2 113.1 265.2 114.4 265.2 115.4 265.3 116.6 265.5 117.3 265.9 118.9 267.3 120.1 269.8 120.1 271.7 120.1 273.7 119.5 274 116 274.1 114.1 274.2 110.6 274.1 108.8 274 107.8 273.8 107.3 272.9 107.2 272.5 107.1 272 107 271.4 107 271.3 106.9 271.3 106.4 271.4 106.2 272.2 106.2 273.3 106.3 274.7 106.3 276.4 106.3 277.2 106.2 277.8 106.2 277.9 106.3 277.9 106.9 277.8 107 277.4 107.1 277 107.1 276.7 107.2 276 107.4 275.8 107.8 275.7 109 275.6 111.2 275.6 114.1 275.4 115.8 275 120.3 272.2 121.8 268.6 121.8 264 121.8 262.3 119.7 262 117.2 261.8 115.5 261.8 110.8 261.8 108.5 261.8 107.9 261.6 107.4 261 107.3 260.7 107.2 260.1 107.1 259.6 107.1 259.6 106.9 259.6 106.3 259.7 106.2Z" fill="#802358"/></g><g><path d="M280.8 120.4C281.2 120.3 281.3 120 281.4 119.5 281.4 118.8 281.5 116.8 281.5 115.6 281.5 114.9 281.5 114 281.4 113.6 281.3 113.4 281.1 113 280.1 112.7 280.1 112.5 280.2 112.1 280.2 112 281.7 111.9 283.4 111.4 284.3 111 284.4 111 284.4 111.1 284.4 111.2 284.4 111.5 284.4 112.2 284.4 112.6 284.4 112.7 284.5 112.7 284.5 112.7 285.8 111.7 287.1 111.2 288 111.2 289.2 111.2 290.1 111.7 290.7 112.5 291.2 113.3 291.4 114.3 291.4 115.4 291.4 116.9 291.4 119 291.4 119.8 291.4 120 291.5 120.1 291.6 120.2 292 120.4 292.3 120.5 292.9 120.6 293 120.7 292.9 121.3 292.8 121.4 292.4 121.4 291.6 121.3 289.9 121.3 288.5 121.3 287.9 121.3 287.1 121.4 287 121.3 287 120.7 287.1 120.6 287.5 120.5 287.8 120.5 287.9 120.5 288.2 120.4 288.3 120.2 288.4 119.7 288.4 118.7 288.5 115.6 288.3 114.6 288.2 114.2 288 113.7 287.5 113.4 287.2 113.1 286.7 113 286.2 113 285.7 113 285.1 113.2 284.7 113.5 284.5 113.6 284.5 113.8 284.5 114 284.5 115.7 284.5 118.3 284.6 119.6 284.6 120.2 284.8 120.4 285.2 120.5 285.5 120.6 285.6 120.6 286.1 120.6 286.2 120.7 286.1 121.3 286 121.4 285.2 121.4 284.3 121.3 283 121.3 281.4 121.3 280.6 121.3 280.1 121.4 280 121.2 280 120.7 280.1 120.6 280.2 120.6 280.5 120.5 280.8 120.4Z" fill="#802358"/></g><g><path d="M301 121.4C300.5 121.4 299.5 121.3 298 121.3 296.6 121.3 295.6 121.4 295.1 121.4 295 121.3 295 120.7 295.1 120.6 295.5 120.5 295.8 120.5 296.1 120.4 296.4 120.3 296.5 120.1 296.6 119.5 296.6 118.9 296.7 117.3 296.7 116.1 296.7 115.2 296.7 114.3 296.7 113.8 296.7 113.6 296.6 113.4 296.5 113.2 296.3 113 296 112.9 295.4 112.6 295.3 112.5 295.4 112 295.5 111.9 296.2 111.9 298.5 111.6 299.8 111.1 299.8 112.1 299.8 113.9 299.8 115.4 299.8 116.7 299.8 118.4 299.8 119.5 299.8 120.1 300 120.3 300.3 120.5 300.5 120.6 300.8 120.6 301.3 120.7 301.2 120.7 301.2 121.3 301 121.4ZM298.9 109.2C298.7 109.3 297.5 109.5 297.2 109.3 296.8 109.1 296.5 108.7 296.4 108.2 296.3 108 296.4 107.4 296.6 107.1 296.9 106.8 297.7 106.6 298.4 106.6 299 106.6 299.4 106.8 299.5 106.9 299.7 107.1 299.7 107.5 299.7 107.7 299.6 108.3 299.3 108.9 298.9 109.2Z" fill="#802358"/></g><g><path d="M302.8 111.4C303.6 111.4 304.8 111.5 305.9 111.5 307.2 111.5 308.1 111.5 308.7 111.4 308.8 111.5 308.9 112.1 308.8 112.2 308.5 112.3 308 112.3 307.8 112.4 307.6 112.5 307.6 112.6 307.6 112.7 307.9 113.7 309.3 117 309.8 118 309.8 118.1 309.9 118 309.9 118 310.4 116.8 311.4 114.4 311.8 113.3 312 112.6 311.9 112.4 311.6 112.3 311.2 112.2 310.9 112.1 310.4 112.1 310.3 112 310.4 111.4 310.5 111.3 310.9 111.3 311.9 111.4 312.9 111.4 313.7 111.4 314.7 111.4 315.2 111.3 315.3 111.4 315.3 112 315.2 112.1 314.8 112.2 314.6 112.2 314.3 112.3 313.9 112.5 313.6 112.8 313.2 113.5 312.5 114.8 311.6 116.9 310.7 119 310.3 120 310 120.7 309.8 121.3 309.4 121.3 308.5 121.2 308.1 121.3 307.9 120.7 307.6 119.9 307.3 119.1 306.6 117.4 305.8 115.5 305.3 114.3 304.5 112.6 304.4 112.4 303.8 112.2 303.5 112.1 303.2 112.1 302.9 112 302.6 112 302.7 111.5 302.8 111.4Z" fill="#802358"/></g><g><path d="M326.8 118.7C326.8 118.9 326.7 119.4 326.7 119.5 325.5 120.8 323.6 121.6 322 121.6 320.5 121.6 319.3 121.2 318.5 120.4 317.4 119.4 316.9 117.8 316.9 116.4 316.9 114.3 317.9 112.8 319.3 111.9 320.2 111.4 321.4 111.1 322.4 111.1 325.2 111.1 326.2 113.3 326.4 114.7 326.4 114.8 326.6 114.9 326.8 115 326.8 115.1 326.7 115.6 326.6 115.6 325.7 115.9 321.9 116.1 319.9 116.2 319.8 116.2 319.8 116.3 319.8 116.4 319.9 117.1 320.2 118 320.8 118.6 321.5 119.2 322.3 119.5 323.4 119.5 324.5 119.5 325.4 119.2 326.5 118.5 326.7 118.6 326.8 118.7 326.8 118.7ZM319.9 115C319.9 115 320 115.1 320.1 115.1 320.8 115.1 323 115.1 323.5 115 323.6 115 323.7 114.9 323.7 114.8 323.6 113.3 322.9 112.1 321.8 112.1 320.7 112.1 319.9 113.3 319.9 115Z" fill="#802358"/></g><g><path d="M338.5 111.8C338.5 111.9 338.5 112.2 338.5 112.3 338.4 112.6 337.8 113.9 337.4 114.3 337.3 114.4 337.1 114.4 337.1 114.4 336.5 113.9 335.8 113.4 335.1 113.4 334.8 113.4 334.4 113.6 334.1 113.9 334 114 333.9 114.2 333.9 114.4 333.9 115.8 333.9 118.9 333.9 119.3 334 119.9 334 120.2 334.6 120.3 335.1 120.4 335.5 120.5 336.1 120.5 336.2 120.6 336.1 121.2 336 121.3 335.5 121.3 334.1 121.2 332.4 121.2 331.3 121.2 330.1 121.3 329.5 121.3 329.4 121.2 329.4 120.6 329.5 120.5 329.8 120.5 330.2 120.4 330.5 120.3 330.7 120.2 330.9 120 330.9 119.5 331 119.1 331 117.2 331 115.6 331 114.7 331 114 330.9 113.6 330.9 113.3 330.7 113 329.5 112.6 329.5 112.5 329.6 112 329.6 112 330.6 111.9 332.7 111.5 333.7 111 333.8 111 333.9 111.1 333.9 111.1 333.9 111.4 333.8 112.6 333.8 113 333.8 113.1 333.9 113.1 334 113 334.5 112.4 335 112 335.6 111.5 336 111.2 336.5 111 337.1 111 337.7 111.1 338.2 111.4 338.5 111.8Z" fill="#802358"/></g><g><path d="M348 114.2C347.9 114.3 347.3 114.3 347.2 114.3 347 113.3 346.7 112.6 346.1 112.3 345.8 112.1 345.4 112 344.9 112 344.1 112 343.5 112.5 343.5 113.2 343.5 113.9 343.8 114.3 346 115.3 348.1 116.2 348.8 117 348.8 118.4 348.8 120.5 346.7 121.7 344.2 121.7 343 121.7 341.8 121.5 341 121.2 340.9 120.7 340.6 118.7 340.6 118.2 340.7 118.1 341.3 117.9 341.5 118 341.9 119.3 342.4 120 343.2 120.5 343.6 120.7 344.2 120.8 344.6 120.8 345.5 120.8 346.1 120.3 346.1 119.7 346.1 119 345.6 118.5 344.3 117.9 341.8 116.8 341 115.8 341 114.4 341 112.7 342.4 111.2 345.3 111.2 345.8 111.2 346.6 111.3 347.1 111.3L348.3 111.4C348.1 112.2 348 113.2 348 114.2Z" fill="#802358"/></g><g><path d="M357.4 121.4C356.9 121.4 355.9 121.3 354.4 121.3 353 121.3 352 121.4 351.5 121.4 351.4 121.3 351.4 120.7 351.5 120.6 351.9 120.5 352.2 120.5 352.5 120.4 352.8 120.3 352.9 120.1 353 119.5 353 118.9 353.1 117.3 353.1 116.1 353.1 115.2 353.1 114.3 353.1 113.8 353.1 113.6 353 113.4 352.9 113.2 352.7 113 352.4 112.9 351.8 112.6 351.7 112.5 351.8 112 351.9 111.9 352.6 111.9 354.9 111.6 356.2 111.1 356.2 112.1 356.2 113.9 356.2 115.4 356.2 116.7 356.2 118.4 356.2 119.5 356.2 120.1 356.4 120.3 356.7 120.5 356.9 120.6 357.2 120.6 357.7 120.7 357.6 120.7 357.5 121.3 357.4 121.4ZM355.3 109.2C355.1 109.3 353.9 109.5 353.6 109.3 353.2 109.1 352.9 108.7 352.8 108.2 352.7 108 352.8 107.4 353 107.1 353.3 106.8 354.1 106.6 354.8 106.6 355.4 106.6 355.8 106.8 355.9 106.9 356.1 107.1 356.1 107.5 356.1 107.7 355.9 108.3 355.7 108.9 355.3 109.2Z" fill="#802358"/></g><g><path d="M364.2 112.8C364.1 112.8 364.1 112.9 364.1 112.9 364.1 113.9 364.1 115.8 364.1 117 364.1 117.9 364.1 118.4 364.2 118.8 364.3 119.4 364.9 119.8 365.6 119.8 366.2 119.8 366.6 119.7 367.1 119.4 367.2 119.5 367.1 120.1 367.1 120.2 366.4 121.1 365.2 121.5 364.1 121.5 362.9 121.5 362 121.1 361.5 120.3 361.1 119.7 361.1 119 361.1 117.5 361.1 116.2 361.1 114 361.1 112.9 361.1 112.8 361 112.7 360.9 112.7 360.5 112.7 360 112.7 359.6 112.6 359.6 112.4 359.7 111.8 359.8 111.6 360.1 111.6 360.7 111.4 360.9 111.4 361 111.4 361 111.3 361 111.2L361 109.1C361.7 108.9 363.2 108.2 363.5 107.8 363.6 107.8 364 107.8 364.1 107.8 364 108.3 364 109.5 364 111.2 364 111.3 364.1 111.4 364.1 111.4 364.9 111.4 366.5 111.3 367.1 111.3 367 111.7 366.9 112.4 366.8 112.8 366.2 112.8 365.1 112.8 364.2 112.8Z" fill="#802358"/></g><g><path d="M368.7 111.4C369.1 111.4 370.3 111.5 371.8 111.5 373.2 111.5 374.1 111.4 374.7 111.4 374.8 111.5 374.8 112 374.8 112.2 374.5 112.3 374.1 112.3 373.9 112.4 373.7 112.5 373.7 112.7 373.7 112.8 374.1 114 375.6 117.4 375.8 118L375.9 118C376.7 116.4 377.6 114 377.7 113.2 377.7 112.9 377.7 112.6 377.2 112.4 376.9 112.3 376.6 112.2 376 112.2 376 112 376 111.5 376.1 111.4 376.6 111.4 377.5 111.5 378.5 111.5 379.4 111.5 380.3 111.5 381 111.4 381.1 111.5 381.1 112 381 112.2 380.6 112.3 380.3 112.3 380 112.4 379.5 112.6 379.2 112.9 378.9 113.8 377.2 117.9 375 122.2 372.9 125.7 372.6 126.2 372.2 126.9 372 127.2L371.7 127.3C371.3 127.3 370.3 126.9 370 126.6 370 126.5 370 126.2 370 126.1 370.9 125.1 372.8 122.9 373.8 121.2 373.7 121.1 373.6 120.9 373.5 120.6 372.9 119.2 371.9 116.8 370.9 114.8 370.1 113.1 369.9 112.7 369.1 112.5 368.8 112.4 368.5 112.4 368.2 112.3 368.5 112 368.5 111.5 368.7 111.4Z" fill="#802358"/></g></g></g></g></svg>